<svg width="374" height="148" viewBox="0 0 374 148" fill="none" xmlns="http://www.w3.org/2000/svg">
<path d="M74 148C114.869 148 148 114.869 148 74C148 33.1309 114.869 0 74 0C33.1309 0 0 33.1309 0 74C0 114.869 33.1309 148 74 148Z" fill="#9743B5"/>
<path d="M73.2734 111.278C75.5732 111.278 77.4043 110.312 78.0049 108.92C78.2832 110.414 79.6455 111.205 81.2715 111.205C82.4287 111.205 83.4248 110.897 83.9668 110.517V109.916C83.8057 109.975 83.6006 110.004 83.3662 110.004C82.5312 110.004 81.9014 109.477 81.9014 108.231V101.039C81.9014 97.7725 79.543 96.3223 75.7783 96.3223C72.0723 96.3223 69.6113 97.8457 69.6113 99.7939C69.6113 100.849 70.4756 101.625 71.5303 101.625C72.5996 101.625 73.4492 100.819 73.4492 99.7793C73.4492 98.8125 72.7314 98.0508 71.8379 97.9482C72.541 97.5674 73.4053 97.3477 74.3428 97.3477C76.584 97.3477 77.9316 98.3877 77.9316 101.112V102.65L75.0166 103.251C70.7246 104.145 69.084 105.565 69.084 107.748C69.084 109.872 70.8271 111.278 73.2734 111.278ZM73.1123 107.104C73.1123 105.375 74.0059 104.291 76.7012 103.661L77.9316 103.397V108.363C77.4482 109.228 76.5986 109.682 75.4854 109.682C74.1523 109.682 73.1123 108.759 73.1123 107.104ZM90.3283 108.891V104.057L91.8078 104.086L95.8508 111H100.992V110.399C100.084 110.15 99.5275 109.521 98.1359 107.074L94.635 101.215L95.7922 99.9697C97.8576 97.9043 98.634 97.5381 100.113 97.2305V96.5859H94.591V97.2305C96.2609 97.5234 96.3635 98.0801 95.0891 99.501L91.7639 103.28L90.3283 103.31V98.6953C90.3283 97.6992 90.5041 97.4502 91.8664 97.2305V96.5859H84.5275V97.2305C85.9924 97.4648 86.2561 97.7578 86.2561 98.7979V108.803C86.2561 109.843 85.9924 110.121 84.5275 110.37V111H91.8664V110.37C90.5041 110.136 90.3283 109.887 90.3283 108.891ZM105.889 111.278C108.189 111.278 110.02 110.312 110.621 108.92C110.899 110.414 112.261 111.205 113.887 111.205C115.044 111.205 116.04 110.897 116.582 110.517V109.916C116.421 109.975 116.216 110.004 115.982 110.004C115.147 110.004 114.517 109.477 114.517 108.231V101.039C114.517 97.7725 112.159 96.3223 108.394 96.3223C104.688 96.3223 102.227 97.8457 102.227 99.7939C102.227 100.849 103.091 101.625 104.146 101.625C105.215 101.625 106.065 100.819 106.065 99.7793C106.065 98.8125 105.347 98.0508 104.454 97.9482C105.157 97.5674 106.021 97.3477 106.958 97.3477C109.2 97.3477 110.547 98.3877 110.547 101.112V102.65L107.632 103.251C103.34 104.145 101.7 105.565 101.7 107.748C101.7 109.872 103.443 111.278 105.889 111.278ZM105.728 107.104C105.728 105.375 106.621 104.291 109.317 103.661L110.547 103.397V108.363C110.064 109.228 109.214 109.682 108.101 109.682C106.768 109.682 105.728 108.759 105.728 107.104ZM132.29 110.224H130.151V98.9004C130.151 97.7578 130.4 97.4795 132.055 97.2305V96.5859H118.242V97.2305C119.926 97.4502 120.395 97.8604 120.38 99.457L120.366 100.512C120.307 105.873 119.296 108.876 118.3 110.224H116.63L116.513 115.57H117.158C118.491 111.542 118.886 111 121.523 111H127.412C130.019 111 130.429 111.557 131.777 115.57H132.407L132.29 110.224ZM119.326 110.224C120.234 108.92 121.215 106.049 121.289 100.512L121.333 97.3623H126.079V110.224H119.326ZM133.568 103.822C133.568 108.378 136.82 111.278 141.054 111.278C143.646 111.278 145.756 110.312 146.766 108.803V108.158C145.99 108.949 144.76 109.521 143.236 109.521C140.16 109.521 137.977 107.147 137.699 103.266H146.957C147.001 103.031 147.03 102.68 147.03 102.343C147.03 98.7832 144.701 96.3223 140.804 96.3223C136.425 96.3223 133.568 99.4424 133.568 103.822ZM137.655 102.372C137.655 99.0469 138.812 97.1865 140.804 97.1865C142.548 97.1865 143.368 98.9736 143.368 101.596C143.368 101.947 143.353 102.226 143.339 102.46L137.67 102.519C137.655 102.475 137.655 102.431 137.655 102.372ZM154.285 96.5859H148.602V97.2305C150.066 97.4355 150.447 97.9482 150.389 99.3398L150.11 108.114C150.052 109.594 149.847 110.136 148.265 110.37V111H152.894V110.37C151.194 110.121 151.019 109.608 151.062 108.144L151.165 98.7832L155.955 111H157.625L162.254 98.8857L162.532 108.905C162.562 109.872 162.312 110.136 160.965 110.37V111H168.26V110.37C166.795 110.121 166.546 109.843 166.517 108.803L166.224 98.7979C166.194 97.7578 166.487 97.4648 167.923 97.2305V96.5859H162.239L158.255 106.986L154.285 96.5859ZM175.178 108.891V108.305L180.949 100.438V108.891C180.949 109.887 180.759 110.15 179.397 110.37V111H186.736V110.37C185.241 110.121 185.022 109.843 185.022 108.803V98.7979C185.022 97.7578 185.241 97.4795 186.736 97.2305V96.5859H179.397V97.2305C180.759 97.4355 180.949 97.6992 180.949 98.6953V99.2812L175.178 107.147V98.6953C175.178 97.6992 175.354 97.4502 176.716 97.2305V96.5859H169.377V97.2305C170.842 97.4648 171.106 97.7578 171.106 98.7979V108.803C171.106 109.843 170.842 110.121 169.377 110.37V111H176.716V110.37C175.354 110.136 175.178 109.887 175.178 108.891ZM189.42 100.863C189.42 104.027 191.471 105.463 194.401 105.463C196.115 105.463 197.755 104.95 198.693 104.35V108.92C198.693 109.887 198.371 110.165 196.554 110.37V111H204.611V110.37C203.043 110.165 202.75 109.901 202.75 108.92V98.6807C202.75 97.6846 203.043 97.4209 204.611 97.2305V96.5859H197.067V97.2305C198.458 97.3916 198.693 97.6553 198.693 98.5781V103.676C198.136 103.954 197.125 104.203 196.203 104.203C194.43 104.203 193.478 103.31 193.478 101.171V98.5781C193.478 97.6553 193.712 97.3916 195.075 97.2305V96.5859H187.589V97.2305C189.142 97.4209 189.42 97.6846 189.42 98.6807V100.863ZM206.153 103.822C206.153 108.378 209.405 111.278 213.638 111.278C216.231 111.278 218.34 110.312 219.351 108.803V108.158C218.575 108.949 217.344 109.521 215.821 109.521C212.745 109.521 210.562 107.147 210.284 103.266H219.542C219.586 103.031 219.615 102.68 219.615 102.343C219.615 98.7832 217.286 96.3223 213.389 96.3223C209.009 96.3223 206.153 99.4424 206.153 103.822ZM210.24 102.372C210.24 99.0469 211.397 97.1865 213.389 97.1865C215.132 97.1865 215.953 98.9736 215.953 101.596C215.953 101.947 215.938 102.226 215.923 102.46L210.254 102.519C210.24 102.475 210.24 102.431 210.24 102.372ZM228.789 111.278C231.323 111.278 233.403 110.297 234.429 108.817V108.188C233.652 108.935 232.392 109.477 230.884 109.477C227.939 109.477 225.581 107.104 225.581 103.046C225.581 99.6475 227.383 97.3916 230.166 97.3916C231.103 97.3916 231.894 97.6406 232.495 98.0801C232.436 98.0654 232.378 98.0654 232.334 98.0654C231.323 98.0654 230.503 98.9004 230.503 99.9551C230.503 101.01 231.338 101.845 232.422 101.845C233.462 101.845 234.326 101.024 234.326 99.8818C234.326 97.9482 232.48 96.3223 229.126 96.3223C224.643 96.3223 221.347 99.4424 221.347 103.822C221.347 108.349 224.599 111.278 228.789 111.278ZM241.376 108.891V104.057L242.855 104.086L246.898 111H252.04V110.399C251.132 110.15 250.575 109.521 249.184 107.074L245.683 101.215L246.84 99.9697C248.905 97.9043 249.682 97.5381 251.161 97.2305V96.5859H245.639V97.2305C247.309 97.5234 247.411 98.0801 246.137 99.501L242.812 103.28L241.376 103.31V98.6953C241.376 97.6992 241.552 97.4502 242.914 97.2305V96.5859H235.575V97.2305C237.04 97.4648 237.304 97.7578 237.304 98.7979V108.803C237.304 109.843 237.04 110.121 235.575 110.37V111H242.914V110.37C241.552 110.136 241.376 109.887 241.376 108.891ZM258.299 108.891V108.305L264.071 100.438V108.891C264.071 109.887 263.88 110.15 262.518 110.37V111H269.857V110.37C268.363 110.121 268.143 109.843 268.143 108.803V98.7979C268.143 97.7578 268.363 97.4795 269.857 97.2305V96.5859H262.518V97.2305C263.88 97.4355 264.071 97.6992 264.071 98.6953V99.2812L258.299 107.147V98.6953C258.299 97.6992 258.475 97.4502 259.837 97.2305V96.5859H252.498V97.2305C253.963 97.4648 254.227 97.7578 254.227 98.7979V108.803C254.227 109.843 253.963 110.121 252.498 110.37V111H259.837V110.37C258.475 110.136 258.299 109.887 258.299 108.891ZM283.235 108.422L279.734 103.236L282.385 99.6475C283.601 97.9336 284.143 97.5088 285.417 97.2305V96.5859H280.452V97.2305C282.034 97.4648 282.239 97.8164 281.257 99.4277L279.25 102.504L277.185 99.4424C276.189 97.875 276.365 97.3916 278.02 97.2305V96.5859H270.3V97.2305C271.223 97.4209 271.721 97.8164 272.6 99.1348L276.057 104.262L273.406 107.836C272.131 109.623 271.589 110.048 270.242 110.37V111H275.281V110.37C273.787 110.136 273.508 109.74 274.519 108.085L276.54 104.979L278.635 108.085C279.675 109.726 279.47 110.194 277.829 110.37V111H285.593V110.37C284.656 110.15 284.128 109.755 283.235 108.422ZM293.673 100.863C293.673 104.027 295.723 105.463 298.653 105.463C300.367 105.463 302.008 104.95 302.945 104.35V108.92C302.945 109.887 302.623 110.165 300.806 110.37V111H308.863V110.37C307.296 110.165 307.003 109.901 307.003 108.92V98.6807C307.003 97.6846 307.296 97.4209 308.863 97.2305V96.5859H301.319V97.2305C302.711 97.3916 302.945 97.6553 302.945 98.5781V103.676C302.388 103.954 301.378 104.203 300.455 104.203C298.682 104.203 297.73 103.31 297.73 101.171V98.5781C297.73 97.6553 297.965 97.3916 299.327 97.2305V96.5859H291.842V97.2305C293.394 97.4209 293.673 97.6846 293.673 98.6807V100.863ZM314.551 111.278C316.851 111.278 318.682 110.312 319.282 108.92C319.561 110.414 320.923 111.205 322.549 111.205C323.706 111.205 324.702 110.897 325.244 110.517V109.916C325.083 109.975 324.878 110.004 324.644 110.004C323.809 110.004 323.179 109.477 323.179 108.231V101.039C323.179 97.7725 320.82 96.3223 317.056 96.3223C313.35 96.3223 310.889 97.8457 310.889 99.7939C310.889 100.849 311.753 101.625 312.808 101.625C313.877 101.625 314.727 100.819 314.727 99.7793C314.727 98.8125 314.009 98.0508 313.115 97.9482C313.818 97.5674 314.683 97.3477 315.62 97.3477C317.861 97.3477 319.209 98.3877 319.209 101.112V102.65L316.294 103.251C312.002 104.145 310.361 105.565 310.361 107.748C310.361 109.872 312.104 111.278 314.551 111.278ZM314.39 107.104C314.39 105.375 315.283 104.291 317.979 103.661L319.209 103.397V108.363C318.726 109.228 317.876 109.682 316.763 109.682C315.43 109.682 314.39 108.759 314.39 107.104ZM333.539 111.278C336.073 111.278 338.154 110.297 339.179 108.817V108.188C338.403 108.935 337.143 109.477 335.634 109.477C332.69 109.477 330.331 107.104 330.331 103.046C330.331 99.6475 332.133 97.3916 334.916 97.3916C335.854 97.3916 336.645 97.6406 337.245 98.0801C337.187 98.0654 337.128 98.0654 337.084 98.0654C336.073 98.0654 335.253 98.9004 335.253 99.9551C335.253 101.01 336.088 101.845 337.172 101.845C338.212 101.845 339.076 101.024 339.076 99.8818C339.076 97.9482 337.231 96.3223 333.876 96.3223C329.394 96.3223 326.098 99.4424 326.098 103.822C326.098 108.349 329.35 111.278 333.539 111.278ZM348.426 111.278C352.879 111.278 356.307 108.188 356.307 103.749C356.307 99.2227 352.923 96.3223 348.499 96.3223C344.032 96.3223 340.619 99.3984 340.619 103.837C340.619 108.378 344.002 111.278 348.426 111.278ZM348.529 110.414C346.361 110.414 344.969 107.807 344.969 103.676C344.969 99.6914 346.2 97.1865 348.412 97.1865C350.55 97.1865 351.942 99.7793 351.942 103.91C351.942 107.909 350.711 110.414 348.529 110.414ZM372.893 106.957C372.893 104.599 370.784 103.471 367.576 103.31C370.212 102.943 372.234 101.83 372.234 99.8525C372.234 97.8018 370.315 96.5859 366.58 96.5859H357.805V97.2305C359.27 97.4648 359.534 97.7578 359.534 98.7979V108.803C359.534 109.843 359.27 110.121 357.805 110.37V111H366.506C370.271 111 372.893 109.418 372.893 106.957ZM368.132 100.233C368.132 102.006 367.151 103.09 365.159 103.119L363.606 103.148V97.333L365.232 97.3916C367.151 97.4209 368.132 98.4316 368.132 100.233ZM368.689 106.986C368.689 109.052 367.297 110.15 365.159 110.209L363.606 110.253V103.866L365.159 103.881C367.297 103.91 368.689 104.774 368.689 106.986Z" fill="black"/>
<path d="M87.4808 59.8319C86.6575 59.7121 86.3149 59.1772 86.4532 58.2272C86.6006 57.2139 87.6842 56.4338 89.704 55.8869C91.7964 55.2859 93.9509 55.1467 96.1675 55.4692C100.981 56.1695 104.822 58.216 107.692 61.6085C110.57 64.9377 111.701 68.7239 111.083 72.9672C110.199 79.0472 107.408 83.5564 102.712 86.4949C98.0889 89.3792 92.9589 90.4113 87.3222 89.5911C81.6856 88.771 77.113 85.9714 73.6046 81.1925C70.1595 76.4227 68.9852 70.2695 70.0818 62.7329C70.8651 57.3496 72.5477 52.4528 75.1296 48.0426C77.7841 43.5783 80.7621 40.0018 84.0636 37.3132C87.4285 34.6338 91.091 32.3534 95.0512 30.472C102.618 26.9164 109.248 25.1325 114.941 25.1201C116.081 25.2859 116.591 25.7805 116.471 26.6039C116.416 26.9839 116.257 27.1871 115.995 27.2136C105.316 29.9284 96.9464 34.3371 90.8845 40.4399C84.8318 46.4793 81.2249 53.489 80.0638 61.469C78.9119 69.3856 79.2991 75.392 81.2254 79.488C83.2243 83.5299 86.0287 85.8135 89.6387 86.3388C92.362 86.735 94.8217 85.8318 97.0177 83.629C99.223 81.363 100.607 78.2983 101.169 74.4349C101.74 70.5083 101.36 67.1222 100.028 64.2768C98.6954 61.4313 96.351 59.7644 92.9943 59.276C91.9177 59.1193 90.7454 59.1751 89.4776 59.4433C88.2097 59.7116 87.5442 59.8411 87.4808 59.8319Z" fill="white"/>
<path d="M67.9058 22.341L53.0722 93.7114C52.217 97.9121 51.8579 100.926 51.9949 102.755C52.1101 104.292 52.7182 105.437 53.8192 106.19C54.9587 106.899 57.4922 107.252 61.4197 107.251L60.9692 109.603L28.8717 112.008L29.5715 109.637C32.9724 109.299 35.1958 108.86 36.2419 108.322C37.931 107.444 39.1651 106.348 39.9442 105.037C41.1722 103.022 42.3072 99.4903 43.3495 94.44L54.0495 43.1846C54.6948 40.0861 55.0418 38.3052 55.0907 37.8419C55.1531 37.0016 55.1547 36.1867 55.0955 35.3972C54.9866 33.943 54.5062 32.8299 53.6545 32.0581C52.8028 31.2862 51.6913 30.9517 50.3202 31.0544C49.2399 31.1353 47.5758 31.5107 45.3279 32.1806L44.3495 29.9976L64.9141 22.5652L67.9058 22.341Z" fill="white"/>
</svg>
