<svg width="40" height="40" viewBox="0 0 40 40" fill="none" xmlns="http://www.w3.org/2000/svg">
<circle cx="20" cy="20" r="19" fill="white" stroke="#696A86" stroke-width="2"/>
<path d="M23.2218 10.6667H15.8885C12.5139 10.6667 9.77734 13.4032 9.77734 16.7778V24.1111C9.77734 27.4857 12.5139 30.2222 15.8885 30.2222H23.2218C26.5963 30.2222 29.3329 27.4857 29.3329 24.1111V16.7778C29.3329 13.4032 26.5963 10.6667 23.2218 10.6667ZM27.4996 24.1111C27.4996 26.47 25.5807 28.3889 23.2218 28.3889H15.8885C13.5296 28.3889 11.6107 26.47 11.6107 24.1111V16.7778C11.6107 14.4189 13.5296 12.5 15.8885 12.5H23.2218C25.5807 12.5 27.4996 14.4189 27.4996 16.7778V24.1111Z" fill="#696A86"/>
<path d="M19.5549 15.5555C16.855 15.5555 14.666 17.7445 14.666 20.4444C14.666 23.1443 16.855 25.3333 19.5549 25.3333C22.2548 25.3333 24.4438 23.1443 24.4438 20.4444C24.4438 17.7445 22.2548 15.5555 19.5549 15.5555ZM19.5549 23.5C17.8707 23.5 16.4993 22.1287 16.4993 20.4444C16.4993 18.759 17.8707 17.3889 19.5549 17.3889C21.2391 17.3889 22.6105 18.759 22.6105 20.4444C22.6105 22.1287 21.2391 23.5 19.5549 23.5Z" fill="#696A86"/>
<path d="M24.8116 15.8404C25.1714 15.8404 25.463 15.5487 25.463 15.1889C25.463 14.8291 25.1714 14.5375 24.8116 14.5375C24.4518 14.5375 24.1602 14.8291 24.1602 15.1889C24.1602 15.5487 24.4518 15.8404 24.8116 15.8404Z" fill="#696A86"/>
</svg>
