<svg aria-hidden="true" style="position: absolute; width: 0; height: 0; overflow: hidden;" version="1.1" xmlns="http://www.w3.org/2000/svg" xmlns:xlink="http://www.w3.org/1999/xlink">
<defs>
<symbol id="icon-Brush" viewBox="0 0 32 32">
<path fill="#feefef" style="fill: var(--color1, #feefef)" d="M16 32c8.837 0 16-7.163 16-16s-7.163-16-16-16c-8.837 0-16 7.163-16 16s7.163 16 16 16z"></path>
<path fill="#000" style="fill: var(--color2, #000)" d="M16.165 20.469c12.227-12.576 12.619-16.712 12.629-16.909 0.005-0.105-0.038-0.211-0.115-0.282s-0.182-0.105-0.292-0.091c-0.182 0.024-4.012 0.67-16.722 12.763-0.077 0.034-0.139 0.091-0.172 0.168-0.895 0.852-1.829 1.757-2.81 2.724-0.101 0.038-0.172 0.11-0.206 0.206-1.513 1.494-3.126 3.121-4.854 4.907-0.139 0.144-0.134 0.369 0.005 0.507 0.024 0.024 2.284 2.231 3.949 3.897 0.072 0.072 0.163 0.105 0.254 0.105 0.086 0 0.177-0.034 0.244-0.096 3.126-2.915 5.783-5.52 8.038-7.837 0.019-0.024 0.038-0.043 0.053-0.062zM12.732 15.926c0.23-0.019 1.226-0.034 2.25 1.077 1.091 1.182 1.245 2.063 1.269 2.336-0.043 0.043-0.081 0.086-0.124 0.129-0.163-0.541-0.527-1.321-1.369-2.236-0.747-0.809-1.498-1.139-2.068-1.269 0.014-0.010 0.029-0.024 0.043-0.038zM16.854 18.717c-0.158-0.531-0.517-1.297-1.34-2.197-0.752-0.819-1.518-1.135-2.078-1.249 8.976-8.383 13.117-10.613 14.496-11.183-0.479 1.407-2.518 5.644-11.078 14.63zM7.835 27.597c-0.096-0.096-0.196-0.196-0.292-0.292l3.442-3.49c0.139-0.139 0.139-0.369-0.005-0.507s-0.369-0.139-0.507 0.005l-3.437 3.485c-0.077-0.077-0.158-0.158-0.235-0.235l3.447-3.495c0.139-0.139 0.139-0.369-0.005-0.507s-0.369-0.139-0.507 0.005l-3.447 3.495c-0.081-0.081-0.158-0.153-0.235-0.235l3.456-3.504c0.139-0.139 0.139-0.369-0.005-0.507s-0.369-0.139-0.507 0.005l-3.456 3.504c-0.081-0.081-0.158-0.158-0.235-0.235l3.466-3.514c0.139-0.139 0.139-0.369-0.005-0.507-0.139-0.139-0.369-0.139-0.507 0.005l-3.466 3.519c-0.158-0.153-0.302-0.297-0.407-0.397 1.652-1.704 3.193-3.255 4.644-4.682 0.359-0.005 1.269 0.096 2.202 1.111 1.288 1.403 1.307 2.389 1.302 2.48-1.436 1.407-2.992 2.901-4.701 4.495zM13.158 22.485c-0.144-0.546-0.503-1.369-1.403-2.351-0.747-0.814-1.508-1.144-2.078-1.269 0.809-0.795 1.589-1.546 2.336-2.255 0.345-0.010 1.269 0.081 2.216 1.111 1.082 1.178 1.269 2.063 1.297 2.37-0.742 0.766-1.532 1.565-2.37 2.394z"></path>
</symbol>
<symbol id="icon-Clock" viewBox="0 0 32 32">
<path d="M15.059 4.706v12.235h9.412v-1.882h-7.529v-10.353h-1.882z"></path>
<path d="M31.953 15.059h-1.882c0.019 0.311 0.047 0.621 0.047 0.941 0 7.784-6.334 14.118-14.118 14.118s-14.118-6.334-14.118-14.118c0-7.784 6.334-14.118 14.118-14.118 0.32 0 0.631 0.028 0.941 0.047v-1.882c-0.311-0.019-0.621-0.047-0.941-0.047-8.819 0-16 7.181-16 16s7.181 16 16 16c8.819 0 16-7.181 16-16 0-0.32-0.028-0.631-0.047-0.941z"></path>
</symbol>
<symbol id="icon-comb" viewBox="0 0 31 32">
<path fill="#feefef" style="fill: var(--color1, #feefef)" d="M15.652 31.318c8.644 0 15.652-7.008 15.652-15.652s-7.008-15.652-15.652-15.652c-8.644 0-15.652 7.008-15.652 15.652s7.008 15.652 15.652 15.652z"></path>
<path fill="#000" style="fill: var(--color2, #000)" d="M24.836 9.383c0.205 0.071 0.43-0.035 0.505-0.241 0.071-0.205-0.035-0.43-0.241-0.505l-4.181-1.471 0.726-2.063 4.181 1.471c0.205 0.071 0.43-0.035 0.505-0.241 0.071-0.205-0.035-0.43-0.241-0.505l-4.181-1.471 0.43-1.223c0.071-0.205-0.035-0.43-0.241-0.505l-7.432-2.603c-0.205-0.071-0.43 0.035-0.505 0.241l-0.43 1.223-4.177-1.467c-0.205-0.071-0.43 0.035-0.505 0.241-0.071 0.205 0.036 0.43 0.241 0.505l4.181 1.471-0.722 2.059-4.181-1.471c-0.205-0.071-0.43 0.035-0.505 0.241s0.036 0.43 0.241 0.505l4.181 1.471-0.726 2.063-4.181-1.471c-0.205-0.071-0.43 0.035-0.505 0.241-0.071 0.205 0.035 0.43 0.241 0.505l4.181 1.471-0.718 2.059-4.181-1.471c-0.205-0.071-0.43 0.036-0.505 0.241-0.071 0.205 0.035 0.43 0.241 0.505l4.181 1.471-0.726 2.063-4.181-1.471c-0.205-0.071-0.43 0.036-0.505 0.241-0.071 0.205 0.035 0.43 0.241 0.505l4.181 1.471-0.872 2.473c-0.071 0.205 0.036 0.43 0.241 0.505l1.759 0.619-0.604 1.716c-0.067 0.178-0.655 0.99-1.219 1.771-1.286 1.779-3.049 4.217-3.542 5.625-0.805 2.292 0.193 4.584 2.319 5.329 2.059 0.722 4.631 0.059 5.574-2.615 0.521-1.483 0.446-4.004 0.383-6.031-0.035-1.203-0.075-2.446 0.059-2.824l0.604-1.72 2.091 0.734c0.205 0.071 0.43-0.035 0.505-0.241l0.872-2.473 4.181 1.471c0.205 0.071 0.43-0.035 0.505-0.241 0.071-0.205-0.035-0.43-0.241-0.505l-4.181-1.471 0.726-2.063 4.181 1.471c0.205 0.071 0.43-0.036 0.505-0.241s-0.035-0.43-0.241-0.505l-4.181-1.471 0.726-2.063 4.181 1.471c0.205 0.071 0.43-0.036 0.505-0.241s-0.035-0.43-0.241-0.505l-4.181-1.471 0.726-2.063 4.173 1.475zM12.777 22.877c0.059 1.96 0.134 4.402-0.339 5.747-0.769 2.181-2.88 2.726-4.568 2.13-1.732-0.607-2.505-2.426-1.838-4.323 0.458-1.302 2.252-3.783 3.44-5.424 0.828-1.148 1.235-1.712 1.325-1.968l0.604-1.72 2.083 0.734-0.604 1.72c-0.174 0.489-0.154 1.452-0.103 3.104zM16.213 18.171l-6.678-2.347 5.246-14.922 6.678 2.347-5.246 14.922z"></path>
<path fill="#000" style="fill: var(--color2, #000)" d="M15.657 2.973c0.22 0 0.398-0.178 0.398-0.398s-0.178-0.398-0.398-0.398c-0.22 0-0.398 0.178-0.398 0.398s0.178 0.398 0.398 0.398z"></path>
<path fill="#000" style="fill: var(--color2, #000)" d="M19.369 4.298c0.205 0.071 0.434-0.035 0.505-0.245 0.071-0.205-0.035-0.434-0.245-0.505-0.205-0.071-0.434 0.035-0.505 0.245-0.071 0.205 0.039 0.434 0.245 0.505z"></path>
<path fill="#000" style="fill: var(--color2, #000)" d="M17.578 3.647c0.22 0 0.398-0.178 0.398-0.398s-0.178-0.398-0.398-0.398c-0.22 0-0.398 0.178-0.398 0.398s0.178 0.398 0.398 0.398z"></path>
<path fill="#000" style="fill: var(--color2, #000)" d="M14.54 5.757c0.205 0.071 0.434-0.035 0.505-0.245 0.071-0.205-0.035-0.434-0.245-0.505-0.205-0.071-0.434 0.035-0.505 0.245-0.071 0.205 0.036 0.43 0.245 0.505z"></path>
<path fill="#000" style="fill: var(--color2, #000)" d="M18.382 7.106c0.205 0.071 0.434-0.035 0.505-0.245 0.071-0.205-0.035-0.434-0.245-0.505-0.205-0.071-0.434 0.035-0.505 0.245-0.071 0.205 0.039 0.434 0.245 0.505z"></path>
<path fill="#000" style="fill: var(--color2, #000)" d="M16.462 6.432c0.205 0.071 0.434-0.035 0.505-0.245 0.071-0.205-0.035-0.434-0.245-0.505-0.205-0.071-0.434 0.035-0.505 0.245-0.071 0.205 0.035 0.434 0.245 0.505z"></path>
<path fill="#000" style="fill: var(--color2, #000)" d="M13.684 8.59c0.22 0 0.398-0.178 0.398-0.398s-0.178-0.398-0.398-0.398c-0.22 0-0.398 0.178-0.398 0.398s0.178 0.398 0.398 0.398z"></path>
<path fill="#000" style="fill: var(--color2, #000)" d="M17.396 9.915c0.205 0.071 0.434-0.036 0.505-0.245 0.071-0.205-0.035-0.434-0.245-0.505-0.205-0.071-0.434 0.036-0.505 0.245s0.035 0.434 0.245 0.505z"></path>
<path fill="#000" style="fill: var(--color2, #000)" d="M15.605 9.264c0.22 0 0.398-0.178 0.398-0.398s-0.178-0.398-0.398-0.398c-0.22 0-0.398 0.178-0.398 0.398s0.178 0.398 0.398 0.398z"></path>
<path fill="#000" style="fill: var(--color2, #000)" d="M12.564 11.375c0.205 0.071 0.434-0.036 0.505-0.245 0.071-0.205-0.035-0.434-0.245-0.505s-0.434 0.036-0.505 0.245c-0.071 0.205 0.039 0.434 0.245 0.505z"></path>
<path fill="#000" style="fill: var(--color2, #000)" d="M16.406 12.724c0.205 0.071 0.434-0.036 0.505-0.245 0.071-0.205-0.035-0.434-0.245-0.505-0.205-0.071-0.434 0.035-0.505 0.245s0.039 0.434 0.245 0.505z"></path>
<path fill="#000" style="fill: var(--color2, #000)" d="M14.485 12.049c0.205 0.071 0.434-0.036 0.505-0.245 0.071-0.205-0.036-0.434-0.245-0.505s-0.434 0.035-0.505 0.245c-0.071 0.205 0.039 0.434 0.245 0.505z"></path>
<path fill="#000" style="fill: var(--color2, #000)" d="M11.708 14.207c0.22 0 0.398-0.178 0.398-0.398s-0.178-0.398-0.398-0.398c-0.22 0-0.398 0.178-0.398 0.398s0.178 0.398 0.398 0.398z"></path>
<path fill="#000" style="fill: var(--color2, #000)" d="M15.42 15.536c0.205 0.071 0.434-0.035 0.505-0.245 0.071-0.205-0.036-0.434-0.245-0.505-0.205-0.071-0.434 0.036-0.505 0.245-0.071 0.205 0.039 0.43 0.245 0.505z"></path>
<path fill="#000" style="fill: var(--color2, #000)" d="M13.629 14.881c0.22 0 0.398-0.178 0.398-0.398s-0.178-0.398-0.398-0.398c-0.22 0-0.398 0.178-0.398 0.398s0.178 0.398 0.398 0.398z"></path>
</symbol>
<symbol id="icon-fb" viewBox="0 0 32 32">
<path fill="#fff" style="fill: var(--color3, #fff); stroke: var(--color4, #696a86)" stroke="#696a86" stroke-linejoin="miter" stroke-linecap="butt" stroke-miterlimit="4" stroke-width="1.6" d="M31.2 16c0 8.395-6.805 15.2-15.2 15.2s-15.2-6.805-15.2-15.2c0-8.395 6.805-15.2 15.2-15.2s15.2 6.805 15.2 15.2z"></path>
<path fill="#696a86" style="fill: var(--color4, #696a86)" d="M19.2 9.247l-1.844-0.003c-2.072 0-3.411 1.374-3.411 3.5v1.614h-1.854c-0.16 0-0.29 0.13-0.29 0.29v2.338c0 0.16 0.13 0.29 0.29 0.29h1.854v5.9c0 0.16 0.13 0.29 0.29 0.29h2.419c0.16 0 0.29-0.13 0.29-0.29v-5.9h2.168c0.16 0 0.29-0.13 0.29-0.29l0.001-2.338c0-0.077-0.031-0.151-0.085-0.205s-0.128-0.085-0.205-0.085h-2.169v-1.368c0-0.658 0.157-0.991 1.013-0.991l1.242-0c0.16 0 0.29-0.13 0.29-0.29v-2.171c0-0.16-0.13-0.29-0.29-0.29z"></path>
</symbol>
<symbol id="icon-GEO" viewBox="0 0 21 32">
<path d="M10.666 3.771c-3.853 0-6.946 3.144-6.946 7.002s3.093 6.996 6.946 6.996c3.853 0 6.946-3.144 6.946-7.002s-3.093-6.996-6.946-6.996zM10.666 16.515c-3.144 0-5.691-2.566-5.691-5.747s2.547-5.741 5.691-5.741c3.144 0 5.691 2.566 5.691 5.747s-2.547 5.741-5.691 5.741z"></path>
<path d="M10.667 0c-5.886 0-10.667 4.825-10.667 10.767 0 1.688 0.389 3.288 1.073 4.712 0.238 0.489 9.594 16.521 9.594 16.521s9.38-16.069 9.619-16.577c0.671-1.412 1.048-2.987 1.048-4.656 0-5.942-4.781-10.767-10.667-10.767zM10.667 29.503c0 0-8.069-13.823-8.213-14.080-0.759-1.38-1.198-2.962-1.198-4.656 0-5.258 4.229-9.512 9.412-9.512s9.412 4.254 9.412 9.512c0 1.688-0.433 3.269-1.198 4.643-0.144 0.264-8.213 14.093-8.213 14.093z"></path>
</symbol>
<symbol id="icon-inst" viewBox="0 0 32 32">
<path fill="#fff" style="fill: var(--color3, #fff); stroke: var(--color4, #696a86)" stroke="#696a86" stroke-linejoin="miter" stroke-linecap="butt" stroke-miterlimit="4" stroke-width="1.6" d="M31.2 16c0 8.395-6.805 15.2-15.2 15.2s-15.2-6.805-15.2-15.2c0-8.395 6.805-15.2 15.2-15.2s15.2 6.805 15.2 15.2z"></path>
<path fill="#696a86" style="fill: var(--color4, #696a86)" d="M18.577 8.533h-5.867c-2.7 0-4.889 2.189-4.889 4.889v5.867c0 2.7 2.189 4.889 4.889 4.889h5.867c2.7 0 4.889-2.189 4.889-4.889v-5.867c0-2.7-2.189-4.889-4.889-4.889zM22 19.289c0 1.887-1.535 3.422-3.422 3.422h-5.867c-1.887 0-3.422-1.535-3.422-3.422v-5.867c0-1.887 1.535-3.422 3.422-3.422h5.867c1.887 0 3.422 1.535 3.422 3.422v5.867z"></path>
<path fill="#696a86" style="fill: var(--color4, #696a86)" d="M15.644 12.444c-2.16 0-3.911 1.751-3.911 3.911s1.751 3.911 3.911 3.911c2.16 0 3.911-1.751 3.911-3.911s-1.751-3.911-3.911-3.911zM15.644 18.8c-1.347 0-2.444-1.097-2.444-2.444s1.097-2.444 2.444-2.444 2.444 1.096 2.444 2.444c0 1.347-1.097 2.444-2.444 2.444z"></path>
<path fill="#696a86" style="fill: var(--color4, #696a86)" d="M19.849 12.672c0.288 0 0.521-0.233 0.521-0.521s-0.233-0.521-0.521-0.521c-0.288 0-0.521 0.233-0.521 0.521s0.233 0.521 0.521 0.521z"></path>
</symbol>
<symbol id="icon-Knife" viewBox="0 0 31 32">
<path fill="#feefef" style="fill: var(--color1, #feefef)" d="M15.484 31.897c8.552 0 15.484-6.932 15.484-15.484s-6.932-15.484-15.484-15.484c-8.552 0-15.484 6.932-15.484 15.484s6.932 15.484 15.484 15.484z"></path>
<path fill="#000" style="fill: var(--color2, #000)" d="M20.354 17.749c-0.309-4.556-1.316-9.934-2.295-12.24-0.124-0.293-0.264-0.546-0.411-0.765 1.614-2.475 1.502-4.275 1.496-4.354-0.017-0.231-0.225-0.411-0.45-0.388-0.231 0.017-0.405 0.219-0.394 0.45 0 0.017 0.079 1.524-1.243 3.645-0.411-0.304-0.861-0.382-1.316-0.197-1.193 0.495-0.99 1.952-0.681 3.173l0.011 0.034c-3.454 5.288-10.271 15.896-10.361 16.026-0.062 0.096-0.079 0.208-0.056 0.321s0.090 0.208 0.186 0.264l2.97 1.856c0.067 0.045 0.146 0.062 0.225 0.062 0.141 0 0.276-0.067 0.354-0.197l7.431-11.655c0.062-0.101 0.079-0.219 0.051-0.338-0.028-0.113-0.107-0.208-0.214-0.264-0.011-0.006-1.238-0.664-1.53-1.794-0.158-0.613-0.011-1.277 0.433-1.969 0.011-0.017 0.017-0.034 0.028-0.051 0.264-0.405 0.512-0.787 0.754-1.159 0.489 1.997 1.254 5.67 1.181 9.855-0.090 5.175-0.889 10.823-0.894 10.879-0.017 0.135 0.028 0.264 0.124 0.36l1.581 1.547c0.079 0.079 0.186 0.118 0.298 0.118 0.079 0 0.157-0.023 0.225-0.067l1.89-1.209c0.107-0.067 0.18-0.186 0.191-0.315 0.017-0.045 0.726-7.059 0.416-11.627zM13.278 11.421c0.011 0.068 0.028 0.135 0.045 0.197 0.135 0.506 0.394 0.928 0.681 1.277l-7.183 11.070-1.164-0.731c0.945-1.462 4.584-7.121 7.622-11.813zM7.912 24.645l-0.377-0.236 7.088-10.918c0.096 0.079 0.186 0.146 0.27 0.203l-6.981 10.952zM17.699 30.028l-1.187-1.164c0.146-1.080 0.793-6.109 0.872-10.772 0.090-5.063-1.024-9.377-1.44-11.003l-0.056-0.225c-0.484-1.907-0.017-2.098 0.186-2.183 0.585-0.242 1.119 0.917 1.215 1.153 0.928 2.194 1.929 7.566 2.227 11.97 0.276 4.061-0.27 10.125-0.383 11.306l-1.434 0.917z"></path>
<path fill="#000" style="fill: var(--color2, #000)" d="M16.866 5.874c0-0.247-0.203-0.45-0.45-0.45s-0.45 0.203-0.45 0.45c0 0.247 0.203 0.45 0.45 0.45s0.45-0.202 0.45-0.45z"></path>
<path fill="#000" style="fill: var(--color2, #000)" d="M17.795 29.19c0.249 0 0.45-0.201 0.45-0.45s-0.201-0.45-0.45-0.45c-0.249 0-0.45 0.201-0.45 0.45s0.201 0.45 0.45 0.45z"></path>
</symbol>
<symbol id="icon-logo" viewBox="0 0 82 32">
<path d="M81.823 19.195c-0.268-0.205-0.53-0.222-0.782-0.047l-0.094 0.094-0.047 0.071-0.071 0.071c-0.047 0.081-0.094 0.151-0.141 0.215-0.141 0.192-0.286 0.373-0.426 0.545-0.379 0.491-0.728 0.928-1.044 1.308-0.949 1.109-1.54 1.607-1.778 1.496-0.268-0.158 0.104-1.116 1.114-2.874l0.496-0.877c0.205-0.35 0.373-0.642 0.497-0.877 0.349-0.632 0.584-1.133 0.711-1.496 0.238-0.666-0.040-1.321-0.829-1.97-0.302-0.252-0.594-0.41-0.876-0.474-0.316-0.081-0.514-0.024-0.594 0.165-0.047 0.111-0.087 0.205-0.117 0.286l-0.165 0.309-0.57 0.83-0.594 0.83c-0.46 0.649-0.869 1.21-1.232 1.688-0.949 1.298-1.802 2.377-2.56 3.23-1.074 1.204-1.604 1.543-1.587 1.022 0.017-0.491 0.426-1.425 1.232-2.804 0.852-1.472 1.772-2.74 2.752-3.802 1.154-1.267 2.127-1.923 2.916-1.973 0.128 0.034 0.222 0.024 0.285-0.024 0.111-0.047 0.104-0.175-0.023-0.38-0.128-0.222-0.332-0.427-0.617-0.619-0.792-0.538-1.627-0.672-2.513-0.403-1.55 0.474-3.097 1.862-4.647 4.158-0.852 1.271-1.449 2.38-1.802 3.341-0.362 0.464-0.701 0.881-1.017 1.244-0.95 1.109-1.534 1.607-1.755 1.496-0.238-0.128 0.215-1.284 1.352-3.469 0.175-0.35 0.403-0.783 0.688-1.308l0.332-0.619 0.308-0.595c0.46-0.854 0.735-1.409 0.829-1.664 0.158-0.444 0.064-0.911-0.286-1.402-0.316-0.427-0.704-0.743-1.161-0.951-0.191-0.128-0.426-0.222-0.711-0.286-0.473-0.158-1.060 0-1.755 0.474-0.584 0.413-1.423 1.321-2.513 2.733 0.141-0.286 0.228-0.474 0.262-0.572 0.158-0.444 0.064-0.911-0.285-1.402-0.316-0.427-0.705-0.743-1.161-0.951-0.192-0.128-0.426-0.222-0.711-0.286-0.473-0.158-1.060 0-1.755 0.474-0.601 0.427-1.383 1.267-2.349 2.518l0.071-0.141 0.094-0.141 0.191-0.309c0.174-0.316 0.174-0.656 0-1.022-0.141-0.333-0.386-0.642-0.735-0.928-0.332-0.252-0.658-0.42-0.973-0.498-0.316-0.094-0.52-0.047-0.617 0.141-0.174 0.413-0.608 1.284-1.305 2.612-0.252 0.444-0.544 0.975-0.876 1.59-0.094 0.192-0.222 0.437-0.38 0.736l-0.191 0.309-0.141 0.286-0.332 0.642c-0.275 0.528-0.51 0.978-0.711 1.372-0.339 0.427-0.648 0.807-0.923 1.123-0.95 1.109-1.534 1.607-1.755 1.496-0.252-0.128 0.215-1.314 1.399-3.563 0.174-0.35 0.402-0.783 0.688-1.308l0.356-0.642c0.128-0.252 0.228-0.45 0.309-0.595 0.473-0.887 0.758-1.456 0.852-1.711 0.238-0.666-0.040-1.321-0.829-1.973-0.316-0.252-0.617-0.42-0.899-0.498-0.302-0.081-0.496-0.024-0.594 0.165-0.158 0.397-0.554 1.197-1.185 2.4-0.205 0.397-0.466 0.904-0.782 1.519l-0.192 0.356-0.164 0.333c-0.141 0.269-0.252 0.474-0.332 0.619-0.362 0.508-0.718 0.988-1.067 1.449-0.49 0.632-0.926 1.187-1.305 1.664-1.043 1.284-1.661 1.876-1.849 1.782-0.238-0.128 0.228-1.314 1.399-3.563 0.175-0.35 0.409-0.783 0.711-1.308l0.332-0.642c0.128-0.239 0.238-0.437 0.332-0.595 0.459-0.887 0.735-1.456 0.829-1.711 0.238-0.666-0.040-1.321-0.829-1.973-0.316-0.252-0.617-0.42-0.903-0.498-0.302-0.081-0.497-0.024-0.594 0.165-0.158 0.413-0.577 1.267-1.258 2.565-0.238 0.461-0.513 0.988-0.829 1.59-0.111 0.205-0.238 0.45-0.379 0.736l-0.192 0.309-0.141 0.286c-0.352 0.652-0.628 1.244-0.842 1.788-0.010 0.013-0.023 0.027-0.034 0.040-0.396 0.508-0.752 0.941-1.067 1.308-0.95 1.109-1.533 1.607-1.755 1.496-0.252-0.128 0.215-1.314 1.399-3.563 0.174-0.35 0.403-0.783 0.688-1.308l0.356-0.642c0.127-0.252 0.228-0.45 0.309-0.595 0.473-0.887 0.758-1.456 0.852-1.711 0.238-0.666-0.040-1.321-0.829-1.973-0.315-0.252-0.617-0.42-0.899-0.498-0.302-0.081-0.497-0.024-0.594 0.165-0.158 0.397-0.554 1.197-1.184 2.4-0.205 0.397-0.466 0.904-0.782 1.519l-0.191 0.356-0.164 0.333c-0.141 0.269-0.252 0.474-0.332 0.619-0.362 0.508-0.718 0.988-1.067 1.449-0.49 0.632-0.926 1.187-1.305 1.664-1.044 1.284-1.661 1.876-1.849 1.782-0.221-0.111-0.101-0.649 0.47-1.835s1.252-2.82 1.346-3.073c0.238-0.666-0.040-1.321-0.829-1.97-0.030-0.024-0.057-0.044-0.087-0.064-0.466-0.528-1.523-1.039-3.181-1.543 0.738-1.862 1.188-3.627 1.352-5.298 0.302-3.641-0.876-6.189-3.527-7.638-2.007-1.045-4.6-1.553-7.798-1.499-2.788 0.057-5.426 0.481-7.912 1.274-4.731 1.533-8.174 3.698-10.332 6.488-2.268 2.931-2.037 5.352 0.698 7.268 0.138 0.081 0.245 0.054 0.329-0.081l0.081-0.165v-0.124c0.329-2.464 1.53-4.804 3.607-7.022 1.913-2.054 4.168-3.6 6.765-4.642 2.241-0.904 4.399-1.341 6.476-1.314 2.268 0 3.99 0.548 5.164 1.644 1.419 1.341 1.788 3.476 1.107 6.407-0.275 1.203-0.698 2.464-1.272 3.778l-3.567-0.41c-1.366 0-2.392 0.178-3.074 0.535-0.819 0.41-1.366 0.985-1.641 1.724-0.245 0.713-0.178 1.425 0.205 2.135 0.111 0.218 0.191 0.303 0.245 0.245 0.027-0.027 0.081-0.081 0.164-0.165l0.124-0.081 0.124-0.124c1.174-0.713 2.966-1.19 5.369-1.439l0.862 0.040c-0.409 0.74-0.862 1.506-1.352 2.299-1.832 2.938-3.839 5.456-6.026 7.564-2.241 2.162-4.047 3.284-5.412 3.368-1.859 0.084-3.090-0.356-3.691-1.314-0.383-0.521-0.409-0.985-0.081-1.395-0.164-1.751-0.45-2.424-0.862-2.014-0.654 0.602-1.067 1.15-1.231 1.644-0.245 0.74-0.218 1.479 0.081 2.219 0.329 0.766 0.846 1.395 1.557 1.889 1.094 0.793 2.406 1.341 3.936 1.644 2.486 0.494 5.369-0.521 8.65-3.039 3.060-2.326 5.781-5.352 8.157-9.076 0.765-1.203 1.419-2.383 1.966-3.533 0.819 0.145 1.51 0.316 2.074 0.518-0.597 1.338-1.58 3.516-1.661 3.735-0.047 0.111-0.087 0.222-0.117 0.333-0.128 0.397-0.141 1.093-0.047 2.091 0.191 0.602 0.728 1.093 1.614 1.472 0.775 0.333 2.077-0.521 3.912-2.565-0.047 0.444-0.023 0.807 0.070 1.093 0.188 0.602 0.728 1.093 1.611 1.472 0.758 0.333 1.778-0.118 3.060-1.355 0.148-0.148 0.305-0.316 0.47-0.491 0.017 0.131 0.040 0.259 0.077 0.373 0.191 0.602 0.728 1.093 1.614 1.472 0.775 0.333 2.077-0.521 3.913-2.565-0.047 0.444-0.023 0.807 0.071 1.093 0.188 0.602 0.728 1.093 1.611 1.472 0.758 0.333 1.778-0.118 3.060-1.355 0.010-0.010 0.017-0.020 0.027-0.027 0.071 0.165 0.171 0.333 0.305 0.504 0.363 0.461 0.782 0.77 1.259 0.928l0.141 0.047c0.268 0.047 0.45-0.017 0.544-0.192l0.047-0.071c0.298-0.427 0.741-1.099 1.328-2.020l0.38-0.595 0.402-0.619 0.805-1.261c1.359-2.074 2.396-3.516 3.107-4.323 1.184-1.314 1.708-1.6 1.563-0.854l-1.993 3.778c-0.443 0.854-0.805 1.6-1.090 2.232-0.413 0.824-0.641 1.308-0.688 1.449-0.158 0.474-0.034 0.975 0.379 1.496 0.363 0.461 0.775 0.77 1.232 0.928l0.141 0.047c0.299 0.047 0.483-0.017 0.544-0.192l0.047-0.071c0.316-0.444 0.765-1.116 1.352-2.020l0.379-0.595 0.379-0.619 0.805-1.261c1.359-2.091 2.396-3.53 3.107-4.323 1.184-1.314 1.708-1.6 1.564-0.854-0.695 1.409-1.359 2.669-1.993 3.778-1.137 2.138-1.557 3.668-1.258 4.585 0.191 0.602 0.728 1.093 1.614 1.472 0.775 0.333 1.795-0.118 3.060-1.355 0.171-0.161 0.352-0.343 0.534-0.538 0.148 0.948 0.778 1.6 1.906 1.94 0.473 0.141 1.061-0.017 1.755-0.474 0.758-0.521 1.644-1.425 2.654-2.706-0.158 0.666-0.158 1.21 0 1.64 0.191 0.619 0.718 1.109 1.587 1.472 0.775 0.333 1.795-0.118 3.060-1.355 0.46-0.427 0.95-0.965 1.47-1.614 0.174-0.222 0.373-0.474 0.594-0.76l0.262-0.333c0.111-0.128 0.192-0.222 0.238-0.286 0.248-0.292 0.225-0.561-0.057-0.814z"></path>
</symbol>
<symbol id="icon-make" viewBox="0 0 32 32">
<path fill="#feefef" style="fill: var(--color1, #feefef)" d="M16 32c8.837 0 16-7.163 16-16s-7.163-16-16-16c-8.837 0-16 7.163-16 16s7.163 16 16 16z"></path>
<path fill="#000" style="fill: var(--color2, #000)" d="M13.125 17.29c-4.766 0-8.645-3.879-8.645-8.645s3.879-8.645 8.645-8.645c4.766 0 8.645 3.879 8.645 8.645s-3.879 8.645-8.645 8.645zM13.125 0.806c-4.323 0-7.839 3.516-7.839 7.839s3.516 7.839 7.839 7.839c4.323 0 7.839-3.516 7.839-7.839s-3.516-7.839-7.839-7.839z"></path>
<path fill="#000" style="fill: var(--color2, #000)" d="M23.439 31.004c-0.069 0-0.141-0-0.214-0.004-1.73-0.052-3.617-0.71-5.323-1.859s-3.028-2.653-3.722-4.234c-0.714-1.629-0.69-3.149 0.077-4.282 1.548-2.298 5.706-2.218 9.266 0.181s5.194 6.222 3.645 8.52c-0.734 1.085-2.052 1.677-3.73 1.677zM17.988 19.516c-1.415 0-2.601 0.472-3.246 1.431-0.649 0.964-0.657 2.286-0.028 3.722 0.653 1.484 1.899 2.899 3.516 3.988 1.613 1.089 3.395 1.714 5.012 1.762 1.581 0.044 2.79-0.46 3.44-1.423 1.371-2.032-0.194-5.492-3.488-7.71-1.734-1.173-3.617-1.77-5.206-1.77z"></path>
<path fill="#000" style="fill: var(--color2, #000)" d="M18.508 29.52c-1.411 1.048-3.298 1.698-5.379 1.698-4.347 0-7.879-2.802-7.879-6.25s3.536-6.25 7.879-6.25c1.097 0 2.141 0.181 3.093 0.504 0.395-0.129 0.823-0.214 1.274-0.25-1.282-0.617-2.77-0.976-4.367-0.976-4.742 0-8.605 3.129-8.605 6.972s3.859 6.972 8.605 6.972c2.367 0 4.516-0.778 6.073-2.036-0.238-0.121-0.468-0.25-0.694-0.383z"></path>
<path fill="#000" style="fill: var(--color2, #000)" d="M13.823 12.774c-0.040 0-0.085-0.008-0.121-0.028-0.141-0.069-0.202-0.238-0.133-0.379l3.371-6.996c0.069-0.141 0.238-0.202 0.379-0.133s0.202 0.238 0.133 0.379l-3.371 6.996c-0.052 0.105-0.153 0.161-0.258 0.161z"></path>
<path fill="#000" style="fill: var(--color2, #000)" d="M14.443 14.827c-0.040 0-0.085-0.008-0.121-0.028-0.141-0.069-0.202-0.238-0.133-0.379l3.371-6.996c0.069-0.141 0.238-0.202 0.379-0.133s0.202 0.238 0.133 0.379l-3.371 6.996c-0.052 0.101-0.153 0.161-0.258 0.161z"></path>
<path fill="#000" style="fill: var(--color2, #000)" d="M11.097 18.742c-0.161 0-0.29-0.129-0.29-0.29v-1.742c0-0.161 0.129-0.29 0.29-0.29s0.29 0.129 0.29 0.29v1.742c0 0.161-0.133 0.29-0.29 0.29z"></path>
<path fill="#000" style="fill: var(--color2, #000)" d="M15.157 18.742c-0.161 0-0.29-0.129-0.29-0.29v-1.742c0-0.161 0.129-0.29 0.29-0.29s0.29 0.129 0.29 0.29v1.742c0 0.161-0.129 0.29-0.29 0.29z"></path>
<path fill="#000" style="fill: var(--color2, #000)" d="M17.206 28.629c-1.101 0.714-2.524 1.149-4.081 1.149-3.48 0-6.306-2.157-6.306-4.811s2.831-4.811 6.306-4.811c0.484 0 0.956 0.044 1.407 0.125 0.157-0.177 0.331-0.331 0.52-0.472-0.613-0.141-1.258-0.218-1.927-0.218-3.79 0-6.875 2.411-6.875 5.379s3.085 5.379 6.875 5.379c1.75 0 3.343-0.52 4.556-1.363-0.161-0.121-0.323-0.238-0.476-0.359z"></path>
</symbol>
<symbol id="icon-nail" viewBox="0 0 32 32">
<path fill="#feefef" style="fill: var(--color1, #feefef)" d="M15.824 32c8.739 0 15.824-7.085 15.824-15.824s-7.085-15.824-15.824-15.824c-8.739 0-15.824 7.085-15.824 15.824s7.085 15.824 15.824 15.824z"></path>
<path fill="none" stroke="#000" style="stroke: var(--color2, #000)" stroke-linejoin="round" stroke-linecap="round" stroke-miterlimit="10" stroke-width="0.7033" d="M5.71 14.96l6.883-1.121"></path>
<path fill="none" stroke="#000" style="stroke: var(--color2, #000)" stroke-linejoin="round" stroke-linecap="round" stroke-miterlimit="10" stroke-width="0.7033" d="M5.71 13.444l6.883-1.121"></path>
<path fill="none" stroke="#000" style="stroke: var(--color2, #000)" stroke-linejoin="round" stroke-linecap="round" stroke-miterlimit="10" stroke-width="0.7033" d="M5.71 11.929l6.883-1.117"></path>
<path fill="none" stroke="#000" style="stroke: var(--color2, #000)" stroke-linejoin="round" stroke-linecap="round" stroke-miterlimit="10" stroke-width="0.7033" d="M12.88 15.386h-1.045v-4.805h-5.368v4.809h-1.045c-1.595 0-2.891 1.292-2.891 2.891v10.157c0 1.595 1.292 2.891 2.891 2.891h7.457c1.595 0 2.891-1.292 2.891-2.891v-10.161c0-1.595-1.296-2.891-2.891-2.891z"></path>
<path fill="none" stroke="#000" style="stroke: var(--color2, #000)" stroke-linejoin="round" stroke-linecap="round" stroke-miterlimit="10" stroke-width="0.7033" d="M25.722 0.451h-2.74l0.798 6.572h1.145l0.798-6.572z"></path>
<path fill="none" stroke="#000" style="stroke: var(--color2, #000)" stroke-linejoin="round" stroke-linecap="round" stroke-miterlimit="10" stroke-width="0.7033" d="M28.414 31.489h-8.127l-0.399-16.43h8.925l-0.399 16.43z"></path>
<path fill="none" stroke="#000" style="stroke: var(--color2, #000)" stroke-linejoin="round" stroke-linecap="round" stroke-miterlimit="10" stroke-width="0.7033" d="M25.323 7.023h-1.942v8.036h1.942v-8.036z"></path>
</symbol>
<symbol id="icon-Phone" viewBox="0 0 29 32">
<path d="M25.659 29.883c-0.952 0.799-2.151 1.448-3.598 1.569-3.553 0.29-9.941-2.74-15.265-9.085-5.33-6.352-7.205-13.17-6.302-16.618 0.979-3.709 5.31-5.107 5.926-5.193 1.035-0.143 2.133 0.668 4.063 2.968 2.486 2.963 1.645 4.713 0.928 5.499-0.089 0.099-0.241 0.239-0.43 0.41-1.348 1.205-2.478 2.509-1.639 3.845 1.546 2.487 2.103 3.15 3.107 4.347s1.561 1.86 3.741 3.814c1.177 1.052 2.652 0.159 4.071-0.947 0.201-0.156 0.365-0.282 0.478-0.352 0.898-0.569 2.768-1.094 5.254 1.869 1.93 2.3 2.524 3.521 2.21 4.522-0.124 0.35-0.987 2.045-2.545 3.352zM3.894 3.916c-0.699 0.587-1.321 1.354-1.579 2.32-0.761 2.9 1.053 9.118 5.917 14.914s10.672 8.663 13.666 8.424c2.618-0.219 4.342-3.201 4.508-3.647-0.013-0.001-0.069-0.581-1.866-2.722-0.672-0.8-1.918-2.052-2.802-1.494-0.078 0.053-0.192 0.137-0.329 0.252-1.090 0.853-3.981 3.119-6.49 0.875-2.28-2.043-2.903-2.786-3.925-4.004s-1.646-1.961-3.262-4.561c-1.774-2.861 0.959-5.314 1.989-6.239 0.131-0.122 0.239-0.213 0.305-0.281 0.708-0.766-0.314-2.219-0.985-3.019-1.791-2.134-2.358-2.297-2.417-2.309-0.246 0.059-1.59 0.536-2.729 1.491z"></path>
</symbol>
<symbol id="icon-pirsing" viewBox="0 0 32 32">
<path fill="#feefef" style="fill: var(--color1, #feefef)" d="M16 32c8.837 0 16-7.163 16-16s-7.163-16-16-16c-8.837 0-16 7.163-16 16s7.163 16 16 16z"></path>
<path fill="#231f20" style="fill: var(--color5, #231f20)" d="M31.022 5.092h-1.049c-0.028 0-0.057 0.004-0.082 0.011l-2.407 0.576c-0.16 0.039-0.274 0.181-0.274 0.345v0.37h-0.555v-0.37c0-0.615-0.565-1.045-1.070-1.045h-11.637c-0.484 0-0.8 0.299-0.974 0.622h-2.368c-0.196 0-0.356 0.16-0.356 0.356v0.348h-0.601v-0.21c0-0.708-0.373-1.116-1.024-1.116-0.583 0-0.978 0.59-0.978 1.138v0.185h-1.116c-0.196 0-0.356 0.16-0.356 0.356s0.16 0.356 0.356 0.356h1.12v2.041h-1.963v-3.719c0-0.196-0.16-0.356-0.356-0.356s-0.356 0.16-0.356 0.356v5.344c0 0.196 0.16 0.356 0.356 0.356h1.689c-0.128 0.427-0.224 0.843-0.224 1.141 0 1.035 1.106 1.692 1.668 1.692h1.664l-0.498 2.012c-0.007 0.028-0.011 0.057-0.011 0.085v0.974c0 0.839 0.718 0.839 1.024 0.839h1.451c0.505 0 0.818-0.324 0.818-0.839v-0.985c0-0.028-0.004-0.057-0.011-0.082l-0.48-2.005h1.113c1.682 0 1.881 2.066 1.881 2.087v1.287c0 0.050 0.011 0.1 0.032 0.146 0.053 0.117 0.146 0.281 0.27 0.508 0.572 1.017 1.909 3.399 1.909 6.076 0 2.244-0.636 4.164-1.020 5.312-0.192 0.576-0.316 0.953-0.316 1.209 0 0.875 1.024 1.508 1.714 1.508h3.157c0.558 0 1.618-0.196 2.421-1.508 1.426-2.325 2.148-5.209 2.148-8.572 0-5.223-2.891-8.551-3.015-8.69l-0.117-0.132c-0.508-0.569-1.362-1.525-1.362-2.375 0-0.889 0.7-0.935 0.843-0.935h3.57c0.686 0 0.999-0.626 0.999-1.209v-1.472h0.555v0.324c0 0.164 0.11 0.306 0.27 0.345l2.418 0.597c0.028 0.007 0.057 0.011 0.085 0.011h1.038c0.839 0 0.839-0.718 0.839-1.024v-1.451c0.007-0.505-0.313-0.818-0.832-0.818zM20.53 10.724c0 1.124 0.964 2.204 1.543 2.848l0.114 0.128c0.117 0.132 2.837 3.264 2.837 8.22 0 3.232-0.686 5.991-2.044 8.199-0.626 1.017-1.408 1.17-1.817 1.17h-3.157c-0.359 0-1.003-0.402-1.003-0.796 0-0.139 0.135-0.551 0.281-0.985 0.395-1.188 1.056-3.175 1.056-5.536 0-2.862-1.401-5.358-2.002-6.425-0.089-0.16-0.164-0.292-0.21-0.384v-1.205c0-0.459-0.452-2.798-2.592-2.798h-5.070c-0.196 0-0.956-0.412-0.956-0.981 0-0.601 0.594-2.098 0.821-2.624 0.018-0.043 0.028-0.089 0.028-0.139v-3.3c0-0.206 0.139-0.427 0.267-0.427 0.167 0 0.313 0 0.313 0.405v3.225c0 0.196 0.16 0.356 0.356 0.356h3.872c0.196 0 0.356-0.16 0.356-0.356v-3.132c0-0.050 0.103-0.498 0.427-0.498h11.634c0.16 0 0.359 0.156 0.359 0.334v2.556c0 0.050-0.007 0.498-0.288 0.498h-3.57c-0.537 0-1.554 0.345-1.554 1.646zM12.199 16.939c0 0.085-0.018 0.114-0.014 0.117-0.004 0-0.028 0.014-0.089 0.014h-1.451c-0.21 0-0.281-0.018-0.295-0.018-0.004 0-0.014 0.007-0.018-0.11v-0.928l0.523-2.108h0.846l0.501 2.094v0.939h-0.004zM10.965 6.311h1.845v0.626h-1.845v-0.626zM10.254 7.015v0.277c0 0.196 0.16 0.356 0.356 0.356h2.201v1.316h-3.161v-1.948h0.604zM5.689 10.322v-0.555h1.785c-0.064 0.164-0.139 0.352-0.213 0.555h-1.572zM31.15 7.36c0 0.228-0.018 0.292-0.014 0.299 0 0-0.028 0.014-0.114 0.014h-0.992l-2.108-0.523v-0.846l2.094-0.501h1.006c0.089 0 0.114 0.014 0.117 0.014 0 0.004 0.014 0.028 0.014 0.089v1.454h-0.004z"></path>
</symbol>
<symbol id="icon-star" viewBox="0 0 32 32">
<path fill="#ffce31" style="fill: var(--color6, #ffce31)" d="M7.221 31.878c-0.772 0.422-1.648-0.318-1.492-1.263l1.66-10.090-7.046-7.159c-0.658-0.67-0.316-1.894 0.566-2.027l9.796-1.485 4.368-9.231c0.394-0.832 1.46-0.832 1.854 0l4.368 9.231 9.796 1.485c0.882 0.132 1.224 1.357 0.566 2.027l-7.046 7.159 1.66 10.090c0.156 0.945-0.72 1.685-1.492 1.263l-8.782-4.813-8.776 4.813z"></path>
</symbol>
<symbol id="icon-vk" viewBox="0 0 32 32">
<path fill="#fff" style="fill: var(--color3, #fff); stroke: var(--color4, #696a86)" stroke="#696a86" stroke-linejoin="miter" stroke-linecap="butt" stroke-miterlimit="4" stroke-width="1.6" d="M31.2 16c0 8.395-6.805 15.2-15.2 15.2s-15.2-6.805-15.2-15.2c0-8.395 6.805-15.2 15.2-15.2s15.2 6.805 15.2 15.2z"></path>
<path fill="#696a86" style="fill: var(--color4, #696a86)" d="M25.525 20.942c-0.024-0.052-0.047-0.095-0.068-0.13-0.346-0.623-1.007-1.388-1.983-2.295l-0.021-0.021-0.010-0.010-0.010-0.010h-0.010c-0.443-0.422-0.723-0.706-0.841-0.852-0.215-0.277-0.263-0.557-0.146-0.841 0.083-0.215 0.395-0.668 0.934-1.36 0.284-0.367 0.509-0.661 0.675-0.882 1.198-1.592 1.717-2.61 1.558-3.053l-0.062-0.104c-0.042-0.062-0.149-0.119-0.322-0.171s-0.395-0.060-0.665-0.026l-2.99 0.021c-0.048-0.017-0.118-0.016-0.208 0.005s-0.135 0.031-0.135 0.031l-0.052 0.026-0.041 0.031c-0.035 0.021-0.073 0.057-0.114 0.109s-0.076 0.112-0.104 0.182c-0.326 0.838-0.696 1.616-1.111 2.336-0.256 0.429-0.491 0.801-0.706 1.116s-0.394 0.547-0.54 0.696c-0.145 0.149-0.277 0.268-0.395 0.358s-0.208 0.128-0.27 0.114c-0.062-0.014-0.121-0.028-0.177-0.042-0.097-0.062-0.175-0.147-0.234-0.254s-0.099-0.242-0.119-0.405c-0.021-0.163-0.033-0.303-0.036-0.42s-0.002-0.284 0.005-0.498c0.007-0.215 0.010-0.36 0.010-0.436 0-0.263 0.005-0.549 0.015-0.857s0.019-0.552 0.026-0.732c0.007-0.18 0.010-0.37 0.010-0.571s-0.012-0.358-0.036-0.472c-0.024-0.114-0.060-0.225-0.109-0.332s-0.12-0.19-0.213-0.249c-0.093-0.059-0.21-0.106-0.348-0.14-0.367-0.083-0.834-0.128-1.402-0.135-1.287-0.014-2.115 0.069-2.482 0.249-0.145 0.076-0.277 0.18-0.394 0.311-0.125 0.152-0.142 0.236-0.052 0.249 0.415 0.062 0.709 0.211 0.882 0.446l0.062 0.125c0.048 0.090 0.097 0.249 0.145 0.478s0.080 0.481 0.093 0.758c0.035 0.505 0.035 0.938 0 1.298s-0.067 0.64-0.099 0.841c-0.031 0.201-0.078 0.363-0.14 0.488s-0.104 0.201-0.125 0.228c-0.021 0.028-0.038 0.045-0.052 0.052-0.090 0.034-0.184 0.052-0.28 0.052s-0.215-0.048-0.353-0.145-0.282-0.23-0.431-0.4c-0.149-0.17-0.317-0.407-0.504-0.711s-0.381-0.664-0.581-1.080l-0.166-0.301c-0.104-0.194-0.246-0.476-0.426-0.846s-0.339-0.729-0.478-1.075c-0.055-0.145-0.138-0.256-0.249-0.332l-0.052-0.031c-0.035-0.028-0.090-0.057-0.166-0.088s-0.156-0.054-0.239-0.067l-2.845 0.021c-0.291 0-0.488 0.066-0.592 0.197l-0.042 0.062c-0.021 0.035-0.031 0.090-0.031 0.166s0.021 0.17 0.062 0.28c0.415 0.976 0.867 1.917 1.355 2.824s0.912 1.637 1.272 2.191c0.36 0.554 0.727 1.076 1.101 1.568s0.621 0.806 0.742 0.945c0.121 0.139 0.216 0.242 0.286 0.312l0.26 0.249c0.166 0.166 0.41 0.365 0.732 0.597s0.678 0.46 1.070 0.686c0.391 0.225 0.846 0.408 1.365 0.55s1.024 0.199 1.516 0.171h1.194c0.242-0.021 0.426-0.097 0.55-0.228l0.041-0.052c0.028-0.041 0.054-0.106 0.078-0.192s0.036-0.182 0.036-0.286c-0.007-0.298 0.016-0.566 0.067-0.805s0.111-0.419 0.177-0.54c0.066-0.121 0.14-0.223 0.223-0.306s0.142-0.133 0.177-0.151c0.034-0.017 0.062-0.029 0.083-0.036 0.166-0.055 0.362-0.002 0.587 0.161s0.436 0.364 0.633 0.602c0.197 0.239 0.434 0.507 0.711 0.805s0.519 0.519 0.727 0.665l0.208 0.125c0.139 0.083 0.319 0.159 0.54 0.228s0.415 0.086 0.581 0.052l2.658-0.042c0.263 0 0.467-0.044 0.613-0.13s0.232-0.182 0.26-0.286c0.028-0.104 0.029-0.222 0.005-0.353s-0.049-0.223-0.073-0.275z"></path>
</symbol>
</defs>
</svg>
