<svg aria-hidden="true" style="position: absolute; width: 0; height: 0; overflow: hidden;" version="1.1" xmlns="http://www.w3.org/2000/svg" xmlns:xlink="http://www.w3.org/1999/xlink">
<defs>
<symbol id="icon-diplom" viewBox="0 0 32 32">
<path fill="#feefef" style="fill: var(--color1, #feefef)" d="M16 32c8.837 0 16-7.163 16-16s-7.163-16-16-16c-8.837 0-16 7.163-16 16s7.163 16 16 16z"></path>
<path fill="#000" style="fill: var(--color2, #000)" d="M28.62 15.956c-0.008-0.004-0.036 0-0.052 0.004-0.040 0.004-3.673 0.484-10.222 0.561h-0.004c-0.569 0.008-1.149 0.012-1.758 0.012-0.258 0-0.52 0-0.778-0.004-0.016 0-0.028 0-0.044 0-0.782-0.004-1.577-0.016-2.411-0.032h-0.004c-5.895-0.121-9.806-0.532-9.851-0.536-0.004 0-0.008 0-0.012 0-0.012 0-0.020-0.004-0.032-0.004-1.331 0-2.028 2.472-2.028 4.915s0.698 4.915 2.028 4.915c0.012 0 0.020-0.004 0.032-0.004 0.004 0 0.008 0 0.012 0 0.044-0.004 4.008-0.423 9.923-0.54l-1.782 3.286c-0.065 0.121-0.065 0.27 0.004 0.391s0.194 0.198 0.331 0.206l1.641 0.089 1.286 1.089c0.073 0.060 0.165 0.097 0.262 0.097 0.040 0 0.081-0.004 0.121-0.016 0.133-0.040 0.234-0.145 0.27-0.278l1.065-3.903c0.012 0 0.024 0 0.036 0s0.024 0 0.036 0l1.064 3.903c0.036 0.133 0.137 0.238 0.27 0.278 0.040 0.012 0.081 0.016 0.121 0.016 0.093 0 0.186-0.032 0.262-0.097l1.286-1.089 1.641-0.089c0.137-0.008 0.262-0.085 0.331-0.206s0.069-0.266 0.004-0.391l-1.778-3.278c5.516 0.125 8.653 0.528 8.69 0.532 0.016 0.004 0.036 0.004 0.052 0.004 1.331 0 2.028-2.472 2.028-4.915-0.012-2.444-0.71-4.915-2.040-4.915zM28.64 24.98c-0.359-0.044-3.556-0.423-8.944-0.54 0.306-0.524 0.484-1.129 0.484-1.774 0-0.766-0.246-1.472-0.661-2.048-0.105-1.298-0.311-2.456-0.589-3.298 5.907-0.093 9.335-0.508 9.71-0.552 0.488 0.044 1.202 1.669 1.202 4.109 0 2.431-0.718 4.060-1.202 4.105zM19.265 28.508l-0.907 0.77-0.867-3.185c0.564-0.141 1.077-0.415 1.5-0.79l1.653 3.052-1.137 0.060c-0.089 0-0.173 0.032-0.242 0.093zM14.023 28.508c-0.069-0.056-0.153-0.089-0.238-0.093l-1.137-0.060 1.653-3.052c0.423 0.375 0.935 0.649 1.5 0.79l-0.867 3.185-0.911-0.77zM13.934 17.311c1.452 0.024 2.847 0.028 4.145 0.016 0.23 0.601 0.415 1.436 0.54 2.407-0.564-0.379-1.242-0.605-1.972-0.605-0.827 0-1.589 0.286-2.194 0.766-0.117-1.004-0.294-1.899-0.52-2.585zM13.918 22.661c0-1.504 1.222-2.726 2.726-2.726s2.726 1.222 2.726 2.726c0 1.504-1.222 2.726-2.726 2.726s-2.726-1.222-2.726-2.726zM3.45 16.762c0.488 0 1.222 1.637 1.222 4.109s-0.734 4.109-1.222 4.109-1.222-1.637-1.222-4.109c0-2.472 0.734-4.109 1.222-4.109zM5.475 20.871c0-1.524-0.27-3.056-0.798-3.996 1.585 0.129 4.552 0.335 8.391 0.423 0.31 0.786 0.536 1.988 0.649 3.383-0.387 0.564-0.613 1.25-0.613 1.984 0 0.645 0.177 1.25 0.48 1.77-4.081 0.077-7.254 0.294-8.911 0.431 0.532-0.94 0.802-2.476 0.802-3.996z"></path>
<path fill="#000" style="fill: var(--color2, #000)" d="M30.704 6.863l-13.907-5.766c-0.101-0.040-0.21-0.040-0.311 0l-13.903 5.766c-0.149 0.060-0.25 0.21-0.25 0.371s0.101 0.311 0.25 0.375l7.109 2.948v2.323c0 1.605 4.548 2.028 6.956 2.028s6.956-0.423 6.956-2.028v-2.323l0.968-0.399v0.863c0 0.528 0.427 0.956 0.956 0.956h0.863c0.528 0 0.956-0.427 0.956-0.956v-2.016l3.367-1.395c0.149-0.060 0.25-0.21 0.25-0.371s-0.109-0.315-0.258-0.375zM26.531 8.996v2.024c0 0.081-0.069 0.149-0.149 0.149h-0.863c-0.081 0-0.149-0.069-0.149-0.149v-2.024c0-0.081 0.069-0.149 0.149-0.149h0.863c0.085 0 0.149 0.065 0.149 0.149zM10.499 12.879c0-0.355 2.153-1.222 6.149-1.222s6.149 0.867 6.149 1.222c0 0.355-2.153 1.222-6.149 1.222s-6.149-0.867-6.149-1.222zM16.644 10.851c-1.778 0-4.734 0.234-6.149 1.004v-3.968c0-0.355 2.153-1.222 6.149-1.222s6.149 0.867 6.149 1.222v3.968c-1.415-0.77-4.367-1.004-6.149-1.004zM16.644 5.859c-2.403 0-6.952 0.423-6.956 2.028v1.794l-5.895-2.448 12.851-5.331 8.903 3.694v2.444h-0.028c-0.528 0-0.956 0.427-0.956 0.956v0.286l-0.968 0.399v-1.794c0-1.605-4.544-2.028-6.952-2.028zM26.999 8.27c-0.165-0.141-0.379-0.234-0.617-0.234h-0.028v-2.109l3.141 1.302-2.496 1.040z"></path>
</symbol>
<symbol id="icon-people" viewBox="0 0 32 32">
<path fill="#feefef" style="fill: var(--color1, #feefef)" d="M16 32c8.837 0 16-7.163 16-16s-7.163-16-16-16c-8.837 0-16 7.163-16 16s7.163 16 16 16z"></path>
<path fill="#000" style="fill: var(--color2, #000)" d="M3.651 26.807v-4.436c0.052-0.278 1.258-1.859 4.98-2.379 0.335 0.371 1.278 1.306 2.48 1.597 0.032 0.008 0.065 0.012 0.097 0.012 0.044 0 0.089-0.008 0.133-0.024 0.181-0.064 1.786-0.641 2.379-1.464 0.024-0.032 0.044-0.069 0.056-0.109 3.573 0.52 4.722 2.036 4.778 2.347v4.452h0.806v-4.448c0-0.266-0.198-0.694-0.661-1.153 0.254-0.052 0.528-0.097 0.819-0.137 0.31 0.339 1.129 1.137 2.169 1.387 0.032 0.008 0.065 0.012 0.097 0.012 0.044 0 0.089-0.008 0.133-0.024 0.161-0.056 1.573-0.569 2.101-1.294 0.016-0.020 0.024-0.044 0.032-0.065 3.016 0.456 4.036 1.734 4.093 1.988v3.742h0.806v-3.742c0-0.637-1.254-2.278-4.859-2.794v-0.887c0.564-0.698 0.859-1.54 0.972-2.020 0.073-0.024 0.149-0.060 0.23-0.113 0.407-0.27 0.685-0.839 0.831-1.685 0.097-0.56 0.149-1.238-0.302-1.492-0.069-0.040-0.137-0.060-0.206-0.073 0.056-0.855-0.012-2.246-0.831-3.258-0.637-0.782-1.601-1.181-2.859-1.181-2.359 0-3.343 1.185-3.758 2.181-0.323 0.782-0.371 1.69-0.238 2.319-0.226 0.177-0.472 0.516-0.399 0.992l0.020 0.133c0.153 1.036 0.371 2.016 0.919 2.351 0.133 0.504 0.399 1.141 0.819 1.702v1.048c-0.504 0.077-0.964 0.173-1.379 0.29-0.883-0.577-2.21-1.113-4.117-1.379v-1.081c0.665-0.811 1-1.802 1.125-2.343 0.085-0.028 0.181-0.069 0.278-0.133 0.452-0.298 0.762-0.935 0.927-1.891 0.109-0.621 0.169-1.375-0.319-1.649-0.089-0.052-0.181-0.077-0.27-0.081 0.069-0.964 0.012-2.581-0.94-3.746-0.282-0.347-0.629-0.625-1.024-0.839 0.069-0.23 0.109-0.472 0.109-0.722 0-1.351-1.101-2.452-2.452-2.452s-2.452 1.101-2.452 2.452c0 0.262 0.044 0.516 0.121 0.754-0.968 0.492-1.496 1.258-1.778 1.94-0.383 0.927-0.411 1.964-0.258 2.653-0.254 0.19-0.556 0.565-0.468 1.109l0.024 0.153c0.173 1.185 0.423 2.31 1.048 2.665 0.149 0.577 0.456 1.319 0.944 1.968v1.266c-4.165 0.593-5.564 2.512-5.564 3.129v4.452h0.806zM9.215 19.444v-0.685c0.524 0.391 1.165 0.657 1.948 0.657 0.734 0 1.331-0.222 1.823-0.552v0.879c-0.403 0.448-1.339 0.863-1.802 1.040-0.94-0.278-1.71-1.060-1.968-1.339zM7.885 15.287c-0.060-0.012-0.387-0.169-0.669-2.089l-0.024-0.161c-0.016-0.105 0.016-0.181 0.056-0.238 0.121 0.073 0.274 0.081 0.403 0.004 0.052-0.028 1.056-0.621 1.585-1.75 0.726 0.77 2.363 1.923 5.778 2.093 0.008 0 0.012 0 0.020 0 0.149 0 0.278-0.081 0.347-0.206 0.008 0.129 0 0.335-0.060 0.669-0.198 1.157-0.577 1.407-0.665 1.407-0.121-0.052-0.226-0.020-0.335 0.048s-0.149 0.206-0.157 0.335c-0.028 0.399-0.782 3.21-3.004 3.21-2.302 0-2.931-2.883-2.96-3.004-0.028-0.161-0.153-0.286-0.315-0.319zM11.369 7.747c1.165 0 2.040 0.347 2.601 1.032 0.899 1.101 0.81 2.815 0.726 3.54-4.226-0.319-5.21-2.262-5.226-2.298-0.073-0.157-0.234-0.254-0.411-0.234-0.173 0.020-0.319 0.149-0.351 0.323-0.157 0.81-0.698 1.395-1.073 1.714-0.093-0.508-0.113-1.452 0.335-2.339 0.585-1.153 1.73-1.738 3.399-1.738zM9.586 6.71c0-0.907 0.738-1.645 1.645-1.645s1.645 0.738 1.645 1.645c0 0.145-0.024 0.282-0.060 0.415-0.435-0.125-0.919-0.186-1.448-0.186-0.661 0-1.226 0.085-1.71 0.222-0.040-0.145-0.073-0.294-0.073-0.452zM20.099 20.505v-0.476c0.448 0.315 0.992 0.524 1.649 0.524 0.613 0 1.117-0.173 1.54-0.439v0.653c-0.323 0.339-1.040 0.694-1.524 0.875-0.786-0.242-1.436-0.887-1.665-1.137zM18.901 16.847c-0.073-0.028-0.323-0.242-0.548-1.782l-0.020-0.141c-0.008-0.052 0.004-0.097 0.020-0.133 0.113 0.048 0.246 0.044 0.359-0.020 0.044-0.024 0.895-0.524 1.375-1.484 0.665 0.681 2.113 1.645 5.028 1.79 0.008 0 0.012 0 0.020 0 0.097 0 0.181-0.032 0.254-0.089-0.004 0.105-0.020 0.246-0.052 0.435-0.165 0.956-0.464 1.177-0.52 1.185-0.113-0.028-0.234 0.008-0.331 0.077s-0.153 0.186-0.165 0.302c-0.004 0.028-0.508 2.754-2.573 2.754-1.968 0-2.508-2.476-2.532-2.581-0.032-0.161-0.157-0.282-0.314-0.314zM21.925 10.363c1 0 1.754 0.298 2.23 0.883 0.754 0.923 0.702 2.351 0.629 3.004-3.605-0.286-4.452-1.935-4.472-1.972-0.073-0.157-0.234-0.254-0.411-0.234-0.173 0.020-0.315 0.149-0.351 0.323-0.125 0.645-0.532 1.121-0.847 1.403-0.065-0.46-0.052-1.246 0.323-1.96 0.508-0.96 1.484-1.448 2.899-1.448z"></path>
</symbol>
<symbol id="icon-sertif" viewBox="0 0 32 32">
<path fill="#feefef" style="fill: var(--color1, #feefef)" d="M16 32c8.837 0 16-7.163 16-16s-7.163-16-16-16c-8.837 0-16 7.163-16 16s7.163 16 16 16z"></path>
<path fill="#000" style="fill: var(--color2, #000)" d="M24.526 24.565h-17.060c-0.196 0-0.356-0.16-0.356-0.356v-22.076c0-0.196 0.16-0.356 0.356-0.356h17.060c0.196 0 0.356 0.16 0.356 0.356v22.076c0 0.196-0.16 0.356-0.356 0.356zM7.822 23.854h16.348v-21.365h-16.348v21.365z"></path>
<path fill="#000" style="fill: var(--color2, #000)" d="M9.892 6.126h12.21c0.196 0 0.356-0.16 0.356-0.356s-0.16-0.356-0.356-0.356h-12.21c-0.196 0-0.356 0.16-0.356 0.356s0.16 0.356 0.356 0.356z"></path>
<path fill="#000" style="fill: var(--color2, #000)" d="M22.101 8.050h-12.21c-0.196 0-0.356 0.16-0.356 0.356s0.16 0.356 0.356 0.356h12.21c0.196 0 0.356-0.16 0.356-0.356s-0.16-0.356-0.356-0.356z"></path>
<path fill="#000" style="fill: var(--color2, #000)" d="M22.101 10.684h-12.21c-0.196 0-0.356 0.16-0.356 0.356s0.16 0.356 0.356 0.356h12.21c0.196 0 0.356-0.16 0.356-0.356s-0.16-0.356-0.356-0.356z"></path>
<path fill="#000" style="fill: var(--color2, #000)" d="M17.66 22.524c-0.021 0-0.046-0.004-0.068-0.011-0.085-0.025-0.156-0.089-0.185-0.174l-0.324-0.964-0.996 0.203c-0.089 0.018-0.178-0.011-0.242-0.071-0.064-0.064-0.089-0.153-0.075-0.242l0.203-0.996-0.964-0.324c-0.085-0.028-0.149-0.096-0.174-0.185-0.025-0.085 0-0.178 0.057-0.245l0.676-0.761-0.676-0.761c-0.060-0.068-0.082-0.16-0.057-0.245s0.089-0.156 0.174-0.185l0.964-0.324-0.203-0.996c-0.018-0.089 0.011-0.178 0.075-0.242s0.153-0.092 0.242-0.071l0.996 0.203 0.324-0.964c0.028-0.085 0.096-0.149 0.185-0.174 0.085-0.021 0.178 0 0.245 0.057l0.761 0.676 0.761-0.676c0.068-0.060 0.16-0.082 0.245-0.057s0.156 0.089 0.185 0.174l0.324 0.964 0.996-0.203c0.089-0.018 0.178 0.011 0.242 0.071 0.064 0.064 0.089 0.153 0.075 0.242l-0.203 0.996 0.964 0.324c0.085 0.028 0.149 0.096 0.174 0.185 0.025 0.085 0 0.178-0.057 0.245l-0.676 0.761 0.676 0.761c0.060 0.068 0.082 0.16 0.057 0.245s-0.089 0.156-0.174 0.185l-0.964 0.324 0.203 0.996c0.018 0.089-0.011 0.178-0.075 0.242s-0.153 0.092-0.242 0.071l-0.996-0.203-0.324 0.964c-0.028 0.085-0.096 0.149-0.185 0.174s-0.178 0-0.245-0.057l-0.761-0.676-0.761 0.676c-0.050 0.046-0.114 0.068-0.178 0.068zM18.599 21.163c0.064 0 0.124 0.021 0.178 0.068l0.636 0.562 0.27-0.807c0.043-0.128 0.174-0.203 0.306-0.178l0.832 0.171-0.171-0.832c-0.028-0.132 0.050-0.263 0.178-0.306l0.807-0.27-0.562-0.636c-0.089-0.1-0.089-0.252 0-0.352l0.562-0.636-0.807-0.27c-0.128-0.043-0.203-0.174-0.178-0.306l0.171-0.832-0.832 0.171c-0.132 0.028-0.263-0.050-0.306-0.178l-0.27-0.807-0.636 0.562c-0.103 0.089-0.252 0.089-0.352 0l-0.636-0.562-0.27 0.807c-0.043 0.128-0.174 0.203-0.306 0.178l-0.832-0.171 0.171 0.832c0.028 0.132-0.050 0.263-0.178 0.306l-0.807 0.27 0.562 0.636c0.089 0.1 0.089 0.252 0 0.352l-0.562 0.636 0.807 0.27c0.128 0.043 0.203 0.174 0.178 0.306l-0.174 0.832 0.832-0.171c0.132-0.028 0.263 0.050 0.306 0.178l0.27 0.807 0.636-0.562c0.050-0.046 0.114-0.068 0.178-0.068z"></path>
<path fill="#000" style="fill: var(--color2, #000)" d="M18.599 20.903c-1.184 0-2.148-0.964-2.148-2.148s0.964-2.148 2.148-2.148c1.184 0 2.148 0.964 2.148 2.148s-0.964 2.148-2.148 2.148zM18.599 17.141c-0.889 0-1.614 0.725-1.614 1.614s0.725 1.614 1.614 1.614c0.889 0 1.614-0.725 1.614-1.614s-0.725-1.614-1.614-1.614z"></path>
</symbol>
<symbol id="icon-shears" viewBox="0 0 32 32">
<path fill="#feefef" style="fill: var(--color1, #feefef)" d="M16 32c8.837 0 16-7.163 16-16s-7.163-16-16-16c-8.837 0-16 7.163-16 16s7.163 16 16 16z"></path>
<path fill="#000" style="fill: var(--color2, #000)" d="M31.729 14.651c-0.211-0.073-0.438 0.040-0.515 0.247-0.016 0.044-0.381 0.974-2.062 1.613 0.061-1.382-0.928-2.773-2.5-3.339-1.6-0.574-3.29-0.097-4.105 1.055-0.186-0.008-0.397-0.044-0.559-0.113-0.689-0.295-1.39-0.736-1.394-0.74-0.077-0.049-0.166-0.069-0.259-0.061-0.008 0-0.916 0.089-2.411 0.036-0.867-0.032-2.549-0.449-3.797-0.788-0.851-0.723-7.095-6.022-7.901-6.665-0.353-0.279-0.648-0.529-0.9-0.736-0.891-0.748-1.43-1.196-1.945-0.655-0.336 0.356-0.616 0.671-0.616 0.671-0.142 0.162-0.134 0.404 0.020 0.554l6.949 6.819-9.19-1.924c-0.203-0.044-0.413 0.081-0.474 0.283-0.154 0.538-0.081 1.152 0.438 1.306 0.049 0.016 0.17 0.053 0.348 0.109 1.183 0.372 4.781 1.504 7.216 2.061l1.37 0.315c1.248 0.287 2.362 0.546 3.31 0.76 0.851 0.683 2.237 1.819 2.439 2.057 0.215 0.251 0.912 1.544 1.357 2.635-0.292 0.356-0.49 0.792-0.579 1.289-0.142 0.796 0.020 1.645 0.454 2.393s1.090 1.314 1.852 1.588c0.332 0.121 0.665 0.178 0.989 0.178 0.446 0 0.875-0.113 1.264-0.335 0.669-0.384 1.114-1.047 1.26-1.867 0.142-0.792-0.020-1.645-0.454-2.393-0.729-1.261-2.066-1.924-3.262-1.73-0.296-0.489-0.596-1.063-0.831-1.702-0.344-0.926-0.397-1.487-0.397-1.75 0.036-0.016 0.073-0.036 0.109-0.053 0.284-0.146 0.579-0.291 0.863-0.36 0.089-0.020 0.182-0.044 0.284-0.073 0.697-0.182 1.564-0.408 2.954 0.21 0.361 0.162 0.697 0.36 1.021 0.578 0.158 1.213 1.094 2.36 2.48 2.858 0.462 0.166 0.932 0.243 1.386 0.243 1.325 0 2.508-0.675 2.99-1.791 2.512-0.768 3.023-2.219 3.047-2.284 0.069-0.206-0.045-0.428-0.251-0.501zM28.24 17.023c-0.425 1.184-1.953 1.726-3.404 1.204-1.451-0.517-2.285-1.904-1.86-3.088 0.316-0.877 1.236-1.403 2.285-1.403 0.365 0 0.746 0.065 1.118 0.198 1.451 0.517 2.281 1.904 1.86 3.088zM20.635 21.413c0.336 0.586 0.466 1.241 0.357 1.847-0.101 0.582-0.413 1.047-0.867 1.31-0.458 0.263-1.013 0.295-1.572 0.097-0.579-0.21-1.086-0.647-1.426-1.233s-0.466-1.241-0.357-1.847c0.101-0.582 0.413-1.047 0.867-1.31 0.267-0.154 0.559-0.226 0.859-0.226 0.798-0.004 1.641 0.501 2.139 1.362zM17.235 19.574c-0.012 0.008-0.024 0.016-0.036 0.024-0.502-1.176-1.195-2.381-1.382-2.603-0.162-0.19-0.725-0.671-1.289-1.14 0.721 0.158 1.187 0.251 1.333 0.263 0.065 0.004 0.13-0.004 0.195-0.012 0.036 0.392 0.146 0.966 0.434 1.746 0.235 0.631 0.519 1.192 0.81 1.685-0.028 0.016-0.049 0.024-0.065 0.036zM16.591 15.051c-0.243 0.121-0.539 0.275-0.665 0.263-0.344-0.028-3.926-0.853-6.297-1.399l-1.37-0.315c-2.31-0.529-5.709-1.592-7.010-2.001l10.515 2.203c0.158 0.032 0.324-0.032 0.417-0.166l0.458-0.659c0.94 0.279 3.914 1.132 5.263 1.18 1.228 0.044 2.062-0.004 2.378-0.028 0.239 0.146 0.81 0.481 1.394 0.728 0.138 0.057 0.312 0.105 0.502 0.137-0.020 0.069-0.041 0.137-0.057 0.202-0.235-0.141-0.474-0.275-0.729-0.388-0.81-0.36-1.491-0.477-2.058-0.477-0.588 0-1.058 0.121-1.43 0.218-0.093 0.024-0.178 0.049-0.259 0.065-0.389 0.101-0.741 0.279-1.053 0.437zM4.812 5.783c0.255 0.214 0.555 0.465 0.916 0.748 0.612 0.485 4.526 3.803 6.633 5.59-0.089 0.024-0.17 0.077-0.223 0.154l-0.474 0.679-0.458-0.097-7.573-7.429c0.085-0.093 0.19-0.206 0.3-0.319 0.166 0.077 0.527 0.38 0.879 0.675z"></path>
</symbol>
<symbol id="icon-work" viewBox="0 0 32 32">
<path fill="#feefef" style="fill: var(--color1, #feefef)" d="M16 32c8.837 0 16-7.163 16-16s-7.163-16-16-16c-8.837 0-16 7.163-16 16s7.163 16 16 16z"></path>
<path fill="#000" style="fill: var(--color2, #000)" d="M19.613 15.876h-7.321c-0.196 0-0.356 0.16-0.356 0.356v3.648c0 0.857 0.697 1.554 1.554 1.554h4.917c0.86 0 1.561-0.7 1.561-1.561v-3.641c0-0.196-0.16-0.356-0.356-0.356zM19.257 19.868c0 0.469-0.38 0.85-0.85 0.85h-4.917c-0.466 0-0.843-0.377-0.843-0.843v-3.292h6.61v3.285z"></path>
<path fill="#000" style="fill: var(--color2, #000)" d="M13.774 20.636c0.196 0 0.356-0.16 0.356-0.356v-3.296c0-0.196-0.16-0.356-0.356-0.356s-0.356 0.16-0.356 0.356v3.296c0 0.196 0.16 0.356 0.356 0.356z"></path>
<path fill="#000" style="fill: var(--color2, #000)" d="M17.426 20.636c0.196 0 0.356-0.16 0.356-0.356v-3.296c0-0.196-0.16-0.356-0.356-0.356s-0.356 0.16-0.356 0.356v3.296c0 0.196 0.16 0.356 0.356 0.356z"></path>
<path fill="#000" style="fill: var(--color2, #000)" d="M26.784 19.307c-0.395-1.547-1.7-2.226-2.613-2.517-0.206-0.316-0.512-0.466-0.729-0.533-0.651-0.203-2.094-1.372-2.901-4.341-0.764-2.812-0.7-4.174-0.676-4.69 0.004-0.071 0.007-0.128 0.007-0.171 0-0.683-0.316-1.109-0.85-1.173v-1.582c0-0.608-0.313-1.248-0.836-1.717-0.409-0.366-1.141-0.804-2.304-0.804-2.19 0-3.14 1.671-3.14 2.521v1.636c-0.466 0.121-0.857 0.491-0.857 1.159 0 0.075-0.139 7.438-3.232 9.028-0.025 0.011-0.309 0.153-0.59 0.473-0.42-0.203-0.885-0.544-0.978-1.092-0.217-1.284 0.54-2.176 1.717-3.396 0.964-0.999 1.963-2.030 2.343-3.769 0.356-1.618-0.43-3.669-0.519-3.897-0.103-0.256-0.299-0.459-0.551-0.569-0.256-0.11-0.537-0.114-0.793-0.011-0.533 0.21-0.793 0.814-0.583 1.348 0.171 0.427 0.612 1.838 0.423 2.688-0.256 1.163-0.942 1.874-1.81 2.773-1.067 1.102-2.677 2.77-2.272 5.184 0.274 1.621 1.575 2.411 2.475 2.77v10.482c0 0.601 0.388 1.209 1.124 1.209h12.814c0.174 0.423 0.334 0.725 0.38 0.804 0.188 0.338 0.54 0.53 0.903 0.53 0.167 0 0.338-0.043 0.498-0.128 0.455-0.252 0.64-0.8 0.459-1.273 0.384-0.128 0.69-0.448 0.69-0.992 0-0.203 0.004-1.913 0.007-3.964 0.153-0.181 0.32-0.366 0.501-0.58l0.057-0.064c1.28-1.476 2.396-3.14 1.835-5.34zM22.304 27.47c-0.274 1.198 0.693 2.972 0.704 2.99 0.085 0.156 0.028 0.352-0.124 0.437s-0.348 0.028-0.434-0.124c-0.409-0.736-1.031-2.293-0.768-3.442 0.316-1.376 1.020-2.18 2.187-3.509l0.057-0.064c1.209-1.38 1.934-2.606 1.554-4.11-0.384-1.504-2.361-1.717-2.379-1.717-0.178-0.018-0.306-0.174-0.288-0.352 0.014-0.153 0.139-0.274 0.292-0.288 0.018 0 0.039 0 0.060 0 0.1 0.011 2.446 0.267 2.937 2.197 0.48 1.884-0.53 3.367-1.692 4.693l-0.053 0.064c-1.106 1.248-1.771 2.005-2.052 3.225zM24.395 19.2c0.181 0.16 0.327 0.359 0.391 0.615 0.196 0.768 0.032 1.44-0.398 2.155 0-0.174 0-0.348 0-0.523 0.004-0.839 0.004-1.614 0.007-2.247zM17.71 3.111c0.373 0.334 0.597 0.779 0.597 1.188v3.207c0 0.149-0.121 0.27-0.27 0.27s-0.27-0.121-0.27-0.27v-3.207c0-0.441-0.555-1.269-1.888-1.269-1.344 0-1.86 0.924-1.888 1.276v3.2c0 0.149-0.121 0.27-0.27 0.27s-0.27-0.121-0.27-0.27v-3.207c0-0.533 0.7-1.81 2.428-1.81 0.939 0 1.515 0.338 1.831 0.622zM14.706 4.352c0.039-0.096 0.299-0.608 1.177-0.608 0.9 0 1.163 0.476 1.177 0.558v1.575c-1.056 0.007-2.172 0.014-2.215 0.014h-0.135l-0.004-1.54zM7.819 11.161c0.871-0.9 1.692-1.753 1.991-3.111 0.274-1.241-0.448-3.083-0.455-3.1-0.068-0.167 0.014-0.356 0.185-0.423 0.039-0.014 0.078-0.021 0.121-0.021s0.089 0.011 0.128 0.028c0.082 0.036 0.142 0.1 0.174 0.178 0.299 0.754 0.74 2.336 0.487 3.481-0.338 1.543-1.266 2.5-2.162 3.428-1.244 1.291-2.18 2.404-1.906 4.007 0.26 1.529 2.226 1.916 2.247 1.92 0.085 0.014 0.16 0.064 0.21 0.135s0.068 0.16 0.053 0.245c-0.032 0.174-0.206 0.292-0.38 0.263-0.1-0.018-2.436-0.469-2.773-2.453-0.348-2.062 0.996-3.456 2.080-4.576zM8.633 29.596c-0.391 0-0.412-0.416-0.412-0.498v-10.247c0.089 0.021 0.146 0.032 0.16 0.036 0.064 0.011 0.128 0.018 0.188 0.018 0.501 0 0.928-0.356 1.020-0.85 0.050-0.274-0.007-0.548-0.167-0.775-0.146-0.213-0.363-0.356-0.608-0.416 0.082-0.060 0.142-0.096 0.153-0.1 3.531-1.813 3.63-9.586 3.63-9.664 0-0.178 0.053-0.302 0.146-0.388v0.796c0 0.54 0.441 0.981 0.981 0.981s0.981-0.441 0.981-0.981v-0.907h0.139c0 0 1.134-0.007 2.212-0.014v0.921c0 0.54 0.441 0.981 0.981 0.981s0.981-0.441 0.981-0.981v-0.9c0.075 0.043 0.139 0.156 0.139 0.448 0 0.032-0.004 0.078-0.004 0.135-0.025 0.544-0.092 1.988 0.7 4.907 0.793 2.923 2.094 4.11 2.834 4.569-0.32 0.149-0.555 0.462-0.59 0.832-0.057 0.565 0.359 1.074 0.917 1.131 0.007 0 0.309 0.039 0.665 0.171 0 0.69-0.004 1.621-0.004 2.649 0 0.484-0.004 0.988-0.004 1.5-0.092 0.11-0.185 0.22-0.288 0.338l-0.057 0.064c-1.198 1.365-1.991 2.268-2.347 3.822-0.185 0.807-0.025 1.696 0.203 2.428l-12.551-0.007zM23.662 29.248c0 0.078-0.004 0.295-0.281 0.338-0.252-0.601-0.505-1.433-0.384-1.959 0.124-0.548 0.338-0.981 0.672-1.451-0.004 1.636-0.007 2.898-0.007 3.072z"></path>
</symbol>
</defs>
</svg>
