<svg width="90" height="90" viewBox="0 0 90 90" fill="none" xmlns="http://www.w3.org/2000/svg">
<path d="M45 90C69.8528 90 90 69.8528 90 45C90 20.1472 69.8528 0 45 0C20.1472 0 0 20.1472 0 45C0 69.8528 20.1472 90 45 90Z" fill="#FEEFEF"/>
<path d="M80.4932 44.8757C80.4705 44.8643 80.3911 44.8757 80.3458 44.887C80.2324 44.8984 70.0144 46.2479 51.597 46.4634H51.5857C49.9866 46.4861 48.3536 46.4974 46.6411 46.4974C45.9153 46.4974 45.1782 46.4974 44.4524 46.4861C44.407 46.4861 44.373 46.4861 44.3276 46.4861C42.1275 46.4747 39.8934 46.4407 37.5459 46.3953H37.5345C20.9544 46.0551 9.95388 44.8984 9.82913 44.887C9.81779 44.887 9.80645 44.887 9.79511 44.887C9.76109 44.887 9.73841 44.8757 9.70438 44.8757C5.96195 44.8757 4 51.8275 4 58.7C4 65.5725 5.96195 72.5244 9.70438 72.5244C9.73841 72.5244 9.76109 72.513 9.79511 72.513C9.80645 72.513 9.81779 72.513 9.82913 72.513C9.95388 72.5017 21.1018 71.3222 37.7387 70.9934L32.7261 80.236C32.5446 80.5763 32.5446 80.9959 32.7374 81.3361C32.9302 81.6763 33.2818 81.8918 33.6673 81.9145L38.283 82.164L41.9007 85.226C42.1048 85.3961 42.3657 85.4981 42.6379 85.4981C42.7513 85.4981 42.8647 85.4868 42.9781 85.4528C43.3523 85.3394 43.6358 85.0445 43.7379 84.6703L46.7319 73.6925C46.7659 73.6925 46.7999 73.6925 46.8339 73.6925C46.8679 73.6925 46.902 73.6925 46.936 73.6925L49.9299 84.6703C50.032 85.0445 50.3155 85.3394 50.6898 85.4528C50.8032 85.4868 50.9166 85.4981 51.03 85.4981C51.2908 85.4981 51.5517 85.4074 51.7671 85.226L55.3848 82.164L60.0005 81.9145C60.3861 81.8918 60.7377 81.6763 60.9304 81.3361C61.1232 80.9959 61.1232 80.5876 60.9418 80.236L55.9405 71.016C71.4546 71.3676 80.2777 72.5017 80.3798 72.513C80.4251 72.5244 80.4818 72.5244 80.5272 72.5244C84.2697 72.5244 86.2316 65.5725 86.2316 58.7C86.1976 51.8275 84.2356 44.8757 80.4932 44.8757ZM80.5499 70.2562C79.5406 70.1315 70.5474 69.0654 55.3962 68.7366C56.2581 67.2623 56.7571 65.5611 56.7571 63.7466C56.7571 61.5919 56.0653 59.6073 54.8972 57.9855C54.6023 54.3338 54.0239 51.079 53.2414 48.7088C69.8556 48.448 79.4952 47.2799 80.5499 47.1552C81.9221 47.2799 83.9294 51.8502 83.9294 58.7114C83.9294 65.5498 81.9108 70.1315 80.5499 70.2562ZM54.1827 80.1793L51.631 82.3454L49.1928 73.3863C50.7805 72.9893 52.2208 72.2182 53.4115 71.1635L58.0612 79.7484L54.8632 79.9185C54.6137 79.9185 54.3755 80.0092 54.1827 80.1793ZM39.4398 80.1793C39.247 80.0206 39.0088 79.9299 38.7707 79.9185L35.5726 79.7484L40.2223 71.1635C41.4131 72.2182 42.8533 72.9893 44.441 73.3863L42.0028 82.3454L39.4398 80.1793ZM39.1903 48.6862C43.2729 48.7542 47.1968 48.7655 50.8485 48.7315C51.495 50.4213 52.0166 52.7688 52.3682 55.5019C50.7805 54.4359 48.8753 53.8008 46.8226 53.8008C44.4977 53.8008 42.3543 54.606 40.6532 55.9556C40.3243 53.1317 39.8254 50.6141 39.1903 48.6862ZM39.1449 63.7353C39.1449 59.5052 42.5811 56.069 46.8112 56.069C51.0413 56.069 54.4776 59.5052 54.4776 63.7353C54.4776 67.9654 51.0413 71.4016 46.8112 71.4016C42.5811 71.4016 39.1449 67.9654 39.1449 63.7353ZM9.70438 47.1438C11.0766 47.1438 13.1406 51.7482 13.1406 58.7C13.1406 65.6519 11.0766 70.2562 9.70438 70.2562C8.33216 70.2562 6.26815 65.6519 6.26815 58.7C6.26815 51.7482 8.33216 47.1438 9.70438 47.1438ZM15.3974 58.7C15.3974 54.4132 14.6376 50.1037 13.152 47.4614C17.6089 47.8243 25.9556 48.4026 36.752 48.6521C37.6253 50.8636 38.2603 54.2431 38.5779 58.167C37.4892 59.7547 36.8541 61.6826 36.8541 63.7466C36.8541 65.5611 37.3531 67.2623 38.2036 68.7252C26.7268 68.9407 17.8017 69.5531 13.1406 69.9387C14.6376 67.2963 15.3974 62.9755 15.3974 58.7Z" fill="black"/>
<path d="M86.3558 19.3023L47.2417 3.08506C46.9582 2.97165 46.652 2.97165 46.3684 3.08506L7.26562 19.3023C6.84602 19.4724 6.5625 19.892 6.5625 20.3456C6.5625 20.7993 6.84602 21.2189 7.26562 21.4003L27.2593 29.6904V36.2227C27.2593 40.7363 40.0517 41.927 46.8221 41.927C53.5925 41.927 66.3848 40.7363 66.3848 36.2227V29.6904L69.1066 28.5677V30.9946C69.1066 32.4802 70.3087 33.6823 71.7943 33.6823H74.2213C75.7069 33.6823 76.909 32.4802 76.909 30.9946V25.3242L86.3785 21.4003C86.7981 21.2302 87.0816 20.8106 87.0816 20.357C87.0816 19.9034 86.7755 19.4724 86.3558 19.3023ZM74.6182 25.3015V30.9946C74.6182 31.2214 74.4254 31.4142 74.1986 31.4142H71.7717C71.5449 31.4142 71.3521 31.2214 71.3521 30.9946V25.3015C71.3521 25.0747 71.5449 24.8819 71.7717 24.8819H74.1986C74.4367 24.8819 74.6182 25.0634 74.6182 25.3015ZM29.5275 36.2227C29.5275 35.2247 35.5834 32.7864 46.8221 32.7864C58.0607 32.7864 64.1167 35.2247 64.1167 36.2227C64.1167 37.2206 58.0607 39.6589 46.8221 39.6589C35.5834 39.6589 29.5275 37.2206 29.5275 36.2227ZM46.8107 30.5183C41.8095 30.5183 33.4967 31.176 29.5161 33.3421V22.1828C29.5161 21.1849 35.5721 18.7466 46.8107 18.7466C58.0494 18.7466 64.1053 21.1849 64.1053 22.1828V33.3421C60.1247 31.176 51.8233 30.5183 46.8107 30.5183ZM46.8107 16.4785C40.0517 16.4785 27.2593 17.6692 27.248 22.1828V27.2295L10.6678 20.3456L46.8107 5.3532L71.8511 15.7413V22.6138H71.7717C70.286 22.6138 69.0839 23.8159 69.0839 25.3015V26.1067L66.3621 27.2295V22.1828C66.3621 17.6692 53.5811 16.4785 46.8107 16.4785ZM75.9337 23.2602C75.4688 22.8633 74.8677 22.6024 74.1986 22.6024H74.1192V16.6712L82.9536 20.3343L75.9337 23.2602Z" fill="black"/>
</svg>
