<svg width="90" height="90" viewBox="0 0 90 90" fill="none" xmlns="http://www.w3.org/2000/svg">
<path d="M45 89.9999C69.8528 89.9999 90 69.8527 90 44.9999C90 20.1471 69.8528 -0.00012207 45 -0.00012207C20.1472 -0.00012207 0 20.1471 0 44.9999C0 69.8527 20.1472 89.9999 45 89.9999Z" fill="#FEEFEF"/>
<path d="M10.2681 75.3947V62.9199C10.4156 62.1373 13.8065 57.6918 24.2739 56.2288C25.2152 57.2722 27.869 59.9032 31.2485 60.7198C31.3392 60.7424 31.4299 60.7538 31.5207 60.7538C31.6454 60.7538 31.7702 60.7311 31.8949 60.6857C32.4052 60.5043 36.9188 58.8826 38.5859 56.5691C38.654 56.4783 38.7107 56.3763 38.7447 56.2629C48.7926 57.7258 52.0247 61.9899 52.1835 62.8632V75.3833H54.4516V62.8745C54.4516 62.126 53.8959 60.9239 52.5917 59.631C53.3062 59.4836 54.0774 59.3589 54.8939 59.2455C55.7671 60.1981 58.0693 62.4435 60.9952 63.1467C61.0859 63.1693 61.1767 63.1807 61.2674 63.1807C61.3921 63.1807 61.5169 63.158 61.6416 63.1126C62.0953 62.9539 66.0645 61.5136 67.5501 59.4723C67.5955 59.4156 67.6182 59.3475 67.6409 59.2908C76.1237 60.5723 78.9929 64.1673 79.1517 64.8818V75.406H81.4199V64.8818C81.4199 63.09 77.8929 58.4743 67.7543 57.0227V54.5277C69.342 52.5658 70.1699 50.1956 70.4874 48.846C70.6915 48.778 70.907 48.6759 71.1338 48.5285C72.2792 47.7686 73.0617 46.1696 73.47 43.7881C73.7422 42.2117 73.8896 40.3064 72.6195 39.592C72.4267 39.4786 72.2339 39.4219 72.0411 39.3879C72.1998 36.9836 72.0071 33.0711 69.7049 30.2245C67.9131 28.0244 65.2026 26.9017 61.6643 26.9017C55.03 26.9017 52.2629 30.2359 51.0948 33.037C50.1875 35.2371 50.0514 37.7888 50.4257 39.558C49.7906 40.057 49.0988 41.0096 49.3029 42.3478L49.3596 42.722C49.7906 45.6366 50.403 48.3924 51.9453 49.3337C52.3196 50.7513 53.068 52.5431 54.2475 54.1195V57.068C52.8299 57.2835 51.537 57.5557 50.3689 57.8846C47.8853 56.2629 44.1542 54.7545 38.7901 54.006V50.9667C40.6613 48.6872 41.6026 45.8974 41.9541 44.3778C42.1923 44.2984 42.4645 44.185 42.7366 44.0035C44.0068 43.1643 44.88 41.3725 45.345 38.6847C45.6512 36.9383 45.8213 34.8175 44.4491 34.0464C44.1996 33.8989 43.9388 33.8309 43.6893 33.8196C43.8821 31.1091 43.7233 26.5615 41.0469 23.284C40.253 22.3087 39.2777 21.5262 38.1663 20.9252C38.3591 20.2787 38.4725 19.5983 38.4725 18.8952C38.4725 15.096 35.3765 12 31.5774 12C27.7782 12 24.6822 15.096 24.6822 18.8952C24.6822 19.6323 24.807 20.3468 25.0224 21.0159C22.3007 22.3994 20.815 24.5542 20.0212 26.4708C18.9438 29.0791 18.8644 31.9937 19.2954 33.933C18.5809 34.466 17.7303 35.5207 17.9798 37.0517L18.0479 37.4826C18.5355 40.8168 19.2387 43.9808 20.9965 44.9788C21.4161 46.6006 22.278 48.6872 23.6502 50.5131V54.0741C11.9352 55.7412 8 61.1394 8 62.8745V75.3947H10.2681ZM25.9183 54.6865V52.7586C27.3926 53.8586 29.1958 54.6071 31.3959 54.6071C33.4599 54.6071 35.1384 53.9834 36.5219 53.0534V55.5257C35.3879 56.7845 32.7568 57.9526 31.4526 58.4516C28.8102 57.6691 26.6442 55.469 25.9183 54.6865ZM22.1759 42.9942C22.0058 42.9602 21.0872 42.5179 20.2933 37.1197L20.2253 36.6661C20.1799 36.3712 20.2707 36.1557 20.3841 35.997C20.7243 36.2011 21.1552 36.2238 21.5181 36.0083C21.6656 35.9289 24.4894 34.2618 25.975 31.0864C28.0164 33.2525 32.6207 36.496 42.2263 36.9723C42.249 36.9723 42.2603 36.9723 42.283 36.9723C42.7026 36.9723 43.0655 36.7455 43.2583 36.3939C43.281 36.7568 43.2583 37.3352 43.0882 38.2765C42.5325 41.5312 41.4665 42.2344 41.217 42.2344C40.8768 42.0869 40.5819 42.1777 40.2757 42.3705C39.9695 42.5633 39.8561 42.9488 39.8334 43.3117C39.754 44.4345 37.6333 52.339 31.3846 52.339C24.909 52.339 23.1399 44.2303 23.0605 43.8901C22.9811 43.4365 22.6295 43.0849 22.1759 42.9942ZM31.9743 21.787C35.2518 21.787 37.7127 22.7623 39.2891 24.6903C41.818 27.7863 41.5686 32.6061 41.3304 34.6474C29.4453 33.7515 26.6782 28.2853 26.6328 28.1832C26.4287 27.7409 25.975 27.4688 25.4761 27.5255C24.9884 27.5822 24.5801 27.9451 24.4894 28.4327C24.0471 30.7122 22.5275 32.3566 21.4728 33.2525C21.2119 31.8236 21.1552 29.1699 22.4141 26.6749C24.0585 23.4315 27.2792 21.787 31.9743 21.787ZM26.9617 18.8725C26.9617 16.3208 29.037 14.2455 31.5887 14.2455C34.1404 14.2455 36.2157 16.3208 36.2157 18.8725C36.2157 19.2807 36.1477 19.6663 36.0456 20.0406C34.8208 19.689 33.4599 19.5189 31.9743 19.5189C30.1144 19.5189 28.5267 19.7571 27.1658 20.1426C27.0524 19.7344 26.9617 19.3148 26.9617 18.8725ZM56.527 57.6691V56.3309C57.7858 57.2155 59.3168 57.8052 61.1653 57.8052C62.8891 57.8052 64.3067 57.3175 65.4975 56.5691V58.4062C64.5902 59.3589 62.5716 60.3569 61.2107 60.8672C58.9992 60.1867 57.1734 58.3722 56.527 57.6691ZM53.1588 47.3831C52.9546 47.3037 52.2515 46.7026 51.6164 42.3705L51.5597 41.9735C51.537 41.8261 51.5711 41.7014 51.6164 41.5993C51.934 41.7354 52.3082 41.724 52.6258 41.5426C52.7505 41.4745 55.1434 40.0683 56.4929 37.3692C58.3642 39.2858 62.4355 41.9962 70.6348 42.4045C70.6575 42.4045 70.6688 42.4045 70.6915 42.4045C70.9637 42.4045 71.2019 42.3138 71.406 42.155C71.3947 42.4499 71.3493 42.8468 71.2586 43.3798C70.7936 46.0675 69.9544 46.6913 69.7956 46.714C69.4781 46.6346 69.1378 46.7366 68.8657 46.9294C68.5935 47.1222 68.4347 47.4511 68.4007 47.78C68.3894 47.8594 66.9718 55.5257 61.1653 55.5257C55.631 55.5257 54.1114 48.5625 54.0433 48.2676C53.9526 47.814 53.6011 47.4738 53.1588 47.3831ZM61.6643 29.1472C64.4768 29.1472 66.5975 29.9864 67.9357 31.6308C70.0564 34.2278 69.909 38.2424 69.7049 40.0796C59.5663 39.2744 57.1847 34.6361 57.128 34.534C56.9239 34.0917 56.4703 33.8196 55.9713 33.8763C55.4836 33.933 55.0867 34.2959 54.9846 34.7835C54.6331 36.598 53.4876 37.9362 52.6031 38.7301C52.4216 37.4372 52.4556 35.2258 53.5103 33.2185C54.9393 30.5194 57.6837 29.1472 61.6643 29.1472Z" fill="black"/>
</svg>
