<svg width="90" height="90" viewBox="0 0 90 90" fill="none" xmlns="http://www.w3.org/2000/svg">
<path d="M45 90C69.8528 90 90 69.8528 90 45C90 20.1472 69.8528 0 45 0C20.1472 0 0 20.1472 0 45C0 69.8528 20.1472 90 45 90Z" fill="#FEEFEF"/>
<path d="M68.98 69.09H21C20.45 69.09 20 68.64 20 68.09V6C20 5.45 20.45 5 21 5H68.98C69.53 5 69.98 5.45 69.98 6V68.09C69.98 68.64 69.53 69.09 68.98 69.09ZM22 67.09H67.98V7H22V67.09Z" fill="black"/>
<path d="M27.8203 17.23H62.1603C62.7103 17.23 63.1603 16.78 63.1603 16.23C63.1603 15.68 62.7103 15.23 62.1603 15.23H27.8203C27.2703 15.23 26.8203 15.68 26.8203 16.23C26.8203 16.78 27.2703 17.23 27.8203 17.23Z" fill="black"/>
<path d="M62.1603 22.64H27.8203C27.2703 22.64 26.8203 23.09 26.8203 23.64C26.8203 24.19 27.2703 24.64 27.8203 24.64H62.1603C62.7103 24.64 63.1603 24.19 63.1603 23.64C63.1603 23.09 62.7103 22.64 62.1603 22.64Z" fill="black"/>
<path d="M62.1603 30.0499H27.8203C27.2703 30.0499 26.8203 30.4999 26.8203 31.0499C26.8203 31.5999 27.2703 32.0499 27.8203 32.0499H62.1603C62.7103 32.0499 63.1603 31.5999 63.1603 31.0499C63.1603 30.4999 62.7103 30.0499 62.1603 30.0499Z" fill="black"/>
<path d="M49.6698 63.35C49.6098 63.35 49.5398 63.34 49.4798 63.32C49.2398 63.25 49.0398 63.07 48.9598 62.83L48.0498 60.12L45.2498 60.69C44.9998 60.74 44.7498 60.66 44.5698 60.49C44.3898 60.31 44.3198 60.06 44.3598 59.81L44.9298 57.01L42.2198 56.1C41.9798 56.02 41.7998 55.83 41.7298 55.58C41.6598 55.34 41.7298 55.08 41.8898 54.89L43.7898 52.75L41.8898 50.61C41.7198 50.42 41.6598 50.16 41.7298 49.92C41.7998 49.68 41.9798 49.48 42.2198 49.4L44.9298 48.49L44.3598 45.69C44.3098 45.44 44.3898 45.19 44.5698 45.01C44.7498 44.83 44.9998 44.75 45.2498 44.81L48.0498 45.38L48.9598 42.67C49.0398 42.43 49.2298 42.25 49.4798 42.18C49.7198 42.12 49.9798 42.18 50.1698 42.34L52.3098 44.24L54.4498 42.34C54.6398 42.17 54.8998 42.11 55.1398 42.18C55.3798 42.25 55.5798 42.43 55.6598 42.67L56.5698 45.38L59.3698 44.81C59.6198 44.76 59.8698 44.84 60.0498 45.01C60.2298 45.19 60.2998 45.44 60.2598 45.69L59.6898 48.49L62.3998 49.4C62.6398 49.48 62.8198 49.67 62.8898 49.92C62.9598 50.16 62.8898 50.42 62.7298 50.61L60.8298 52.75L62.7298 54.89C62.8998 55.08 62.9598 55.34 62.8898 55.58C62.8198 55.82 62.6398 56.02 62.3998 56.1L59.6898 57.01L60.2598 59.81C60.3098 60.06 60.2298 60.31 60.0498 60.49C59.8698 60.67 59.6198 60.75 59.3698 60.69L56.5698 60.12L55.6598 62.83C55.5798 63.07 55.3898 63.25 55.1398 63.32C54.8898 63.39 54.6398 63.32 54.4498 63.16L52.3098 61.26L50.1698 63.16C50.0298 63.29 49.8498 63.35 49.6698 63.35ZM52.3098 59.52C52.4898 59.52 52.6598 59.58 52.8098 59.71L54.5998 61.29L55.3598 59.02C55.4798 58.66 55.8498 58.45 56.2198 58.52L58.5598 59L58.0798 56.66C57.9998 56.29 58.2198 55.92 58.5798 55.8L60.8498 55.04L59.2698 53.25C59.0198 52.97 59.0198 52.54 59.2698 52.26L60.8498 50.47L58.5798 49.71C58.2198 49.59 58.0098 49.22 58.0798 48.85L58.5598 46.51L56.2198 46.99C55.8498 47.07 55.4798 46.85 55.3598 46.49L54.5998 44.22L52.8098 45.8C52.5198 46.05 52.0998 46.05 51.8198 45.8L50.0298 44.22L49.2698 46.49C49.1498 46.85 48.7798 47.06 48.4098 46.99L46.0698 46.51L46.5498 48.85C46.6298 49.22 46.4098 49.59 46.0498 49.71L43.7798 50.47L45.3598 52.26C45.6098 52.54 45.6098 52.97 45.3598 53.25L43.7798 55.04L46.0498 55.8C46.4098 55.92 46.6198 56.29 46.5498 56.66L46.0598 59L48.3998 58.52C48.7698 58.44 49.1398 58.66 49.2598 59.02L50.0198 61.29L51.8098 59.71C51.9498 59.58 52.1298 59.52 52.3098 59.52Z" fill="black"/>
<path d="M52.3095 58.7901C48.9795 58.7901 46.2695 56.0801 46.2695 52.7501C46.2695 49.4201 48.9795 46.7101 52.3095 46.7101C55.6395 46.7101 58.3495 49.4201 58.3495 52.7501C58.3495 56.0801 55.6395 58.7901 52.3095 58.7901ZM52.3095 48.2101C49.8095 48.2101 47.7695 50.2501 47.7695 52.7501C47.7695 55.2501 49.8095 57.2901 52.3095 57.2901C54.8095 57.2901 56.8495 55.2501 56.8495 52.7501C56.8495 50.2501 54.8095 48.2101 52.3095 48.2101Z" fill="black"/>
</svg>
