<svg width="90" height="90" viewBox="0 0 90 90" fill="none" xmlns="http://www.w3.org/2000/svg">
<path d="M45 90C69.8528 90 90 69.8528 90 45C90 20.1472 69.8528 0 45 0C20.1472 0 0 20.1472 0 45C0 69.8528 20.1472 90 45 90Z" fill="#FEEFEF"/>
<path d="M89.2368 41.2048C88.6442 41.0001 88.006 41.3184 87.7895 41.8982C87.7439 42.0232 86.7183 44.6378 81.989 46.4339C82.1599 42.5462 79.3793 38.6357 74.9577 37.0442C70.4564 35.4299 65.7043 36.7713 63.4137 40.0112C62.8895 39.9884 62.2969 39.8861 61.8411 39.6929C59.9038 38.863 57.9323 37.6239 57.9209 37.6126C57.7044 37.4761 57.4537 37.4193 57.1916 37.442C57.1688 37.442 54.6161 37.6921 50.411 37.5443C47.9723 37.4534 43.243 36.2825 39.7331 35.3276C37.34 33.2928 19.7789 18.3897 17.5112 16.5822C16.5197 15.7978 15.6878 15.093 14.9813 14.5133C12.4742 12.4103 10.9585 11.1484 9.51127 12.6717C8.56541 13.6721 7.77909 14.5588 7.77909 14.5588C7.38024 15.0135 7.40303 15.6955 7.83607 16.1161L27.38 35.2935L1.53416 29.8825C0.964366 29.7574 0.371781 30.1098 0.200843 30.6782C-0.2322 32.1901 -0.0270742 33.918 1.4316 34.35C1.56835 34.3955 1.91022 34.4978 2.41164 34.6569C5.73923 35.7028 15.8588 38.8857 22.7077 40.4545L26.5595 41.3412C30.0694 42.1483 33.2033 42.8758 35.8699 43.4783C38.263 45.3995 42.1604 48.5938 42.7302 49.2645C43.3342 49.9693 45.2943 53.607 46.5478 56.6763C45.7273 57.6766 45.1689 58.9044 44.9182 60.3026C44.5194 62.542 44.9752 64.9293 46.1946 67.0323C47.4139 69.1353 49.26 70.7268 51.4025 71.4998C52.3369 71.8408 53.2714 72 54.1831 72C55.4366 72 56.6446 71.6817 57.7386 71.0565C59.6189 69.9765 60.8724 68.1122 61.2827 65.8046C61.6815 63.5765 61.2257 61.1779 60.0063 59.0749C57.9551 55.5281 54.1945 53.6638 50.8327 54.2095C50.0008 52.834 49.1575 51.2197 48.4965 49.4236C47.5279 46.8204 47.3797 45.2403 47.3797 44.5014C47.4823 44.4559 47.5849 44.3991 47.6874 44.3536C48.4851 43.9444 49.317 43.5352 50.1147 43.3419C50.3654 43.2851 50.6276 43.2169 50.9124 43.1373C52.8725 42.6257 55.3113 41.9891 59.22 43.7284C60.2343 44.1831 61.1801 44.7401 62.0918 45.354C62.5362 48.7643 65.1687 51.9928 69.0661 53.391C70.3652 53.8571 71.6871 54.0731 72.9635 54.0731C76.6899 54.0731 80.0175 52.1746 81.3736 49.0371C88.439 46.8773 89.8749 42.7962 89.9433 42.6144C90.137 42.0346 89.8179 41.4094 89.2368 41.2048ZM79.4249 47.8776C78.2283 51.2084 73.9321 52.7317 69.8524 51.2652C65.7727 49.8102 63.4251 45.911 64.6217 42.5803C65.5106 40.1135 68.0974 38.6357 71.0489 38.6357C72.0746 38.6357 73.1458 38.8175 74.1942 39.1927C78.2739 40.6477 80.6101 44.5469 79.4249 47.8776ZM58.0349 60.223C58.9807 61.8713 59.3454 63.7129 59.0377 65.4181C58.7528 67.055 57.8753 68.3623 56.599 69.1012C55.3113 69.8401 53.75 69.9311 52.1774 69.374C50.5478 68.7829 49.1233 67.5552 48.166 65.9069C47.2088 64.2586 46.8555 62.417 47.1632 60.7118C47.4481 59.0749 48.3256 57.7676 49.6019 57.0287C50.3541 56.5967 51.1746 56.3921 52.0178 56.3921C54.2628 56.3807 56.6332 57.8017 58.0349 60.223ZM48.4737 55.0507C48.4395 55.0734 48.4054 55.0962 48.3712 55.1189C46.9581 51.8109 45.0094 48.4233 44.4852 47.7981C44.0293 47.2638 42.4453 45.911 40.8613 44.5924C42.8898 45.0357 44.2003 45.2972 44.6105 45.3313C44.7929 45.3426 44.9752 45.3199 45.1575 45.2972C45.2601 46.3998 45.5678 48.014 46.3769 50.208C47.0379 51.9814 47.8356 53.5615 48.6561 54.9484C48.5763 54.9938 48.5193 55.0166 48.4737 55.0507ZM46.6618 42.3302C45.978 42.6712 45.1461 43.1032 44.7929 43.0691C43.8242 42.9895 33.7503 40.6705 27.0837 39.1358L23.2319 38.2491C16.7362 36.76 7.17511 33.7703 3.51704 32.6221L33.0893 38.8175C33.5338 38.9085 34.001 38.7266 34.2631 38.3515L35.5508 36.4985C38.1947 37.2829 46.5592 39.6815 50.3541 39.8179C53.807 39.9429 56.1545 39.8065 57.0434 39.7383C57.7158 40.1476 59.3226 41.0911 60.9636 41.7845C61.3511 41.9437 61.8411 42.0801 62.3767 42.171C62.3197 42.3643 62.2627 42.5575 62.2171 42.7394C61.5562 42.3415 60.8838 41.9664 60.1659 41.6481C57.8867 40.6364 55.9722 40.3067 54.3768 40.3067C52.7244 40.3067 51.4025 40.6477 50.3541 40.9206C50.0919 40.9888 49.8526 41.057 49.6247 41.1025C48.5307 41.3866 47.5393 41.8868 46.6618 42.3302ZM13.534 16.2639C14.2519 16.8664 15.0952 17.5712 16.1095 18.367C17.8302 19.7311 28.8387 29.064 34.7645 34.0886C34.5138 34.1568 34.2859 34.3045 34.1377 34.5205L32.8044 36.4303L31.5167 36.1575L10.2178 15.2636C10.4571 15.0021 10.7534 14.6838 11.0611 14.3655C11.5283 14.5815 12.5426 15.4341 13.534 16.2639Z" fill="black"/>
</svg>
