<svg width="90" height="90" viewBox="0 0 90 90" fill="none" xmlns="http://www.w3.org/2000/svg">
<path d="M45 90C69.8528 90 90 69.8528 90 45C90 20.1472 69.8528 0 45 0C20.1472 0 0 20.1472 0 45C0 69.8528 20.1472 90 45 90Z" fill="#FEEFEF"/>
<path d="M55.1603 44.6499H34.5703C34.0203 44.6499 33.5703 45.0999 33.5703 45.6499V55.9099C33.5703 58.3199 35.5303 60.2799 37.9403 60.2799H51.7703C54.1903 60.2799 56.1603 58.3099 56.1603 55.8899V45.6499C56.1603 45.0999 55.7103 44.6499 55.1603 44.6499ZM54.1603 55.8799C54.1603 57.1999 53.0903 58.2699 51.7703 58.2699H37.9403C36.6303 58.2699 35.5703 57.2099 35.5703 55.8999V46.6399H54.1603V55.8799Z" fill="black"/>
<path d="M38.7402 58.04C39.2902 58.04 39.7402 57.59 39.7402 57.04V47.77C39.7402 47.22 39.2902 46.77 38.7402 46.77C38.1902 46.77 37.7402 47.22 37.7402 47.77V57.04C37.7402 57.59 38.1902 58.04 38.7402 58.04Z" fill="black"/>
<path d="M49.0098 58.04C49.5598 58.04 50.0098 57.59 50.0098 57.04V47.77C50.0098 47.22 49.5598 46.77 49.0098 46.77C48.4598 46.77 48.0098 47.22 48.0098 47.77V57.04C48.0098 57.59 48.4598 58.04 49.0098 58.04Z" fill="black"/>
<path d="M75.33 54.3C74.22 49.95 70.55 48.04 67.98 47.22C67.4 46.33 66.54 45.91 65.93 45.72C64.1 45.15 60.04 41.86 57.77 33.51C55.62 25.6 55.8 21.77 55.87 20.32C55.88 20.12 55.89 19.96 55.89 19.84C55.89 17.92 55 16.72 53.5 16.54V12.09C53.5 10.38 52.62 8.58 51.15 7.26C50 6.23 47.94 5 44.67 5C38.51 5 35.84 9.7 35.84 12.09V16.69C34.53 17.03 33.43 18.07 33.43 19.95C33.43 20.16 33.04 40.87 24.34 45.34C24.27 45.37 23.47 45.77 22.68 46.67C21.5 46.1 20.19 45.14 19.93 43.6C19.32 39.99 21.45 37.48 24.76 34.05C27.47 31.24 30.28 28.34 31.35 23.45C32.35 18.9 30.14 13.13 29.89 12.49C29.6 11.77 29.05 11.2 28.34 10.89C27.62 10.58 26.83 10.57 26.11 10.86C24.61 11.45 23.88 13.15 24.47 14.65C24.95 15.85 26.19 19.82 25.66 22.21C24.94 25.48 23.01 27.48 20.57 30.01C17.57 33.11 13.04 37.8 14.18 44.59C14.95 49.15 18.61 51.37 21.14 52.38V81.86C21.14 83.55 22.23 85.26 24.3 85.26H60.34C60.83 86.45 61.28 87.3 61.41 87.52C61.94 88.47 62.93 89.01 63.95 89.01C64.42 89.01 64.9 88.89 65.35 88.65C66.63 87.94 67.15 86.4 66.64 85.07C67.72 84.71 68.58 83.81 68.58 82.28C68.58 81.71 68.59 76.9 68.6 71.13C69.03 70.62 69.5 70.1 70.01 69.5L70.17 69.32C73.77 65.17 76.91 60.49 75.33 54.3ZM62.73 77.26C61.96 80.63 64.68 85.62 64.71 85.67C64.95 86.11 64.79 86.66 64.36 86.9C63.93 87.14 63.38 86.98 63.14 86.55C61.99 84.48 60.24 80.1 60.98 76.87C61.87 73 63.85 70.74 67.13 67L67.29 66.82C70.69 62.94 72.73 59.49 71.66 55.26C70.58 51.03 65.02 50.43 64.97 50.43C64.47 50.38 64.11 49.94 64.16 49.44C64.2 49.01 64.55 48.67 64.98 48.63C65.03 48.63 65.09 48.63 65.15 48.63C65.43 48.66 72.03 49.38 73.41 54.81C74.76 60.11 71.92 64.28 68.65 68.01L68.5 68.19C65.39 71.7 63.52 73.83 62.73 77.26ZM68.61 54C69.12 54.45 69.53 55.01 69.71 55.73C70.26 57.89 69.8 59.78 68.59 61.79C68.59 61.3 68.59 60.81 68.59 60.32C68.6 57.96 68.6 55.78 68.61 54ZM49.81 8.75C50.86 9.69 51.49 10.94 51.49 12.09V21.11C51.49 21.53 51.15 21.87 50.73 21.87C50.31 21.87 49.97 21.53 49.97 21.11V12.09C49.97 10.85 48.41 8.52 44.66 8.52C40.88 8.52 39.43 11.12 39.35 12.11V21.11C39.35 21.53 39.01 21.87 38.59 21.87C38.17 21.87 37.83 21.53 37.83 21.11V12.09C37.83 10.59 39.8 7 44.66 7C47.3 7 48.92 7.95 49.81 8.75ZM41.36 12.24C41.47 11.97 42.2 10.53 44.67 10.53C47.2 10.53 47.94 11.87 47.98 12.1V16.53C45.01 16.55 41.87 16.57 41.75 16.57H41.37L41.36 12.24ZM21.99 31.39C24.44 28.86 26.75 26.46 27.59 22.64C28.36 19.15 26.33 13.97 26.31 13.92C26.12 13.45 26.35 12.92 26.83 12.73C26.94 12.69 27.05 12.67 27.17 12.67C27.29 12.67 27.42 12.7 27.53 12.75C27.76 12.85 27.93 13.03 28.02 13.25C28.86 15.37 30.1 19.82 29.39 23.04C28.44 27.38 25.83 30.07 23.31 32.68C19.81 36.31 17.18 39.44 17.95 43.95C18.68 48.25 24.21 49.34 24.27 49.35C24.51 49.39 24.72 49.53 24.86 49.73C25 49.93 25.05 50.18 25.01 50.42C24.92 50.91 24.43 51.24 23.94 51.16C23.66 51.11 17.09 49.84 16.14 44.26C15.16 38.46 18.94 34.54 21.99 31.39ZM24.28 83.24C23.18 83.24 23.12 82.07 23.12 81.84V53.02C23.37 53.08 23.53 53.11 23.57 53.12C23.75 53.15 23.93 53.17 24.1 53.17C25.51 53.17 26.71 52.17 26.97 50.78C27.11 50.01 26.95 49.24 26.5 48.6C26.09 48 25.48 47.6 24.79 47.43C25.02 47.26 25.19 47.16 25.22 47.15C35.15 42.05 35.43 20.19 35.43 19.97C35.43 19.47 35.58 19.12 35.84 18.88V21.12C35.84 22.64 37.08 23.88 38.6 23.88C40.12 23.88 41.36 22.64 41.36 21.12V18.57H41.75C41.75 18.57 44.94 18.55 47.97 18.53V21.12C47.97 22.64 49.21 23.88 50.73 23.88C52.25 23.88 53.49 22.64 53.49 21.12V18.59C53.7 18.71 53.88 19.03 53.88 19.85C53.88 19.94 53.87 20.07 53.87 20.23C53.8 21.76 53.61 25.82 55.84 34.03C58.07 42.25 61.73 45.59 63.81 46.88C62.91 47.3 62.25 48.18 62.15 49.22C61.99 50.81 63.16 52.24 64.73 52.4C64.75 52.4 65.6 52.51 66.6 52.88C66.6 54.82 66.59 57.44 66.59 60.33C66.59 61.69 66.58 63.11 66.58 64.55C66.32 64.86 66.06 65.17 65.77 65.5L65.61 65.68C62.24 69.52 60.01 72.06 59.01 76.43C58.49 78.7 58.94 81.2 59.58 83.26H24.28V83.24ZM66.55 82.26C66.55 82.48 66.54 83.09 65.76 83.21C65.05 81.52 64.34 79.18 64.68 77.7C65.03 76.16 65.63 74.94 66.57 73.62C66.56 78.22 66.55 81.77 66.55 82.26Z" fill="black"/>
</svg>
