<svg width="90" height="90" viewBox="0 0 90 90" fill="none" xmlns="http://www.w3.org/2000/svg">
<path d="M45 90C69.8528 90 90 69.8528 90 45C90 20.1472 69.8528 0 45 0C20.1472 0 0 20.1472 0 45C0 69.8528 20.1472 90 45 90Z" fill="#FEEFEF"/>
<path d="M45.4627 57.5695C79.8502 22.1992 80.9543 10.5661 80.9812 10.0141C80.9947 9.71789 80.8735 9.42168 80.6581 9.21971C80.4426 9.01775 80.1464 8.9235 79.8368 8.96389C79.3251 9.03121 68.5538 10.8489 32.8064 44.8594C32.591 44.9536 32.4159 45.1152 32.3217 45.3306C29.8039 47.7272 27.1784 50.272 24.4182 52.9917C24.1355 53.0994 23.9335 53.3014 23.8393 53.5707C19.5846 57.7715 15.0472 62.3493 10.1866 67.3715C9.79612 67.7754 9.8096 68.4082 10.2001 68.7987C10.2674 68.866 16.6225 75.073 21.308 79.7585C21.51 79.9605 21.7658 80.0547 22.0216 80.0547C22.264 80.0547 22.5198 79.9605 22.7083 79.7854C31.5004 71.5857 38.973 64.2612 45.3146 57.7446C45.3685 57.6773 45.4223 57.6234 45.4627 57.5695ZM35.8089 44.792C36.4552 44.7382 39.2557 44.6978 42.1371 47.8215C45.2069 51.1471 45.6378 53.6245 45.7051 54.392C45.5839 54.5132 45.4762 54.6344 45.355 54.7555C44.8972 53.2341 43.874 51.0394 41.5043 48.4678C39.4038 46.1923 37.29 45.2633 35.6877 44.8998C35.7281 44.8728 35.7685 44.8324 35.8089 44.792ZM47.4016 52.6417C46.9573 51.1471 45.9474 48.9929 43.6316 46.4616C41.5177 44.1592 39.3634 43.2706 37.7881 42.9475C63.0335 19.3717 74.68 13.0974 78.5576 11.4952C77.2112 15.4536 71.4755 27.3694 47.4016 52.6417ZM22.0351 77.6177C21.7658 77.3484 21.483 77.0657 21.2137 76.7964L30.8945 66.981C31.2849 66.5905 31.2849 65.9443 30.881 65.5538C30.4771 65.1633 29.8443 65.1633 29.4538 65.5673L19.7865 75.3692C19.5711 75.1538 19.3422 74.9249 19.1268 74.7094L28.821 64.8806C29.2115 64.4901 29.2115 63.8438 28.8076 63.4534C28.4036 63.0629 27.7708 63.0629 27.3804 63.4669L17.6861 73.2957C17.4572 73.0668 17.2418 72.8648 17.0264 72.6359L26.7475 62.7802C27.138 62.3897 27.138 61.7434 26.7341 61.353C26.3301 60.9625 25.6973 60.9625 25.3069 61.3664L15.5857 71.2222C15.3568 70.9933 15.1414 70.7779 14.926 70.5625L24.674 60.6798C25.0645 60.2893 25.0645 59.643 24.6606 59.2526C24.2701 58.8621 23.6238 58.8621 23.2334 59.266L13.4853 69.1622C13.041 68.7313 12.6371 68.3274 12.3409 68.0447C16.986 63.2514 21.3215 58.889 25.4011 54.8767C26.4109 54.8632 28.9691 55.146 31.5947 58.0004C35.2165 61.9454 35.2703 64.719 35.2569 64.9748C31.2176 68.9333 26.8418 73.1341 22.0351 77.6177ZM37.0072 63.238C36.6033 61.703 35.5935 59.3872 33.0622 56.6271C30.9618 54.3381 28.821 53.4091 27.2188 53.059C29.4942 50.824 31.6889 48.7101 33.7893 46.7174C34.7587 46.6905 37.3573 46.9463 40.0232 49.8411C43.0661 53.1533 43.5912 55.6442 43.672 56.5059C41.585 58.6601 39.3635 60.9087 37.0072 63.238Z" fill="black"/>
</svg>
