<svg width="90" height="92" viewBox="0 0 90 92" fill="none" xmlns="http://www.w3.org/2000/svg">
<path d="M45 90.0404C69.8528 90.0404 90 69.8932 90 45.0404C90 20.1876 69.8528 0.0404053 45 0.0404053C20.1472 0.0404053 0 20.1876 0 45.0404C0 69.8932 20.1472 90.0404 45 90.0404Z" fill="#FEEFEF"/>
<path d="M71.4026 26.9747C71.9923 27.1789 72.6388 26.8727 72.8542 26.2829C73.0584 25.6932 72.7522 25.0468 72.1624 24.8313L60.1413 20.6012L62.228 14.67L74.2491 18.9001C74.8389 19.1043 75.4853 18.7981 75.7008 18.2083C75.9049 17.6186 75.5987 16.9722 75.009 16.7567L62.9878 12.5266L64.2239 9.01102C64.4281 8.4213 64.1219 7.77488 63.5322 7.55941L42.1662 0.0745281C41.5765 -0.129605 40.9301 0.176595 40.7146 0.766312L39.4785 4.28194L27.4686 0.0631874C26.8789 -0.140946 26.2325 0.165254 26.017 0.754972C25.8129 1.34469 26.1191 1.99111 26.7088 2.20658L38.73 6.43667L36.6546 12.3565L24.6335 8.12644C24.0437 7.92231 23.3973 8.22851 23.1818 8.81823C22.9664 9.40794 23.2839 10.0544 23.8736 10.2698L35.8948 14.4999L33.8081 20.4311L21.7869 16.201C21.1972 15.9969 20.5508 16.3031 20.3353 16.8928C20.1312 17.4825 20.4374 18.129 21.0271 18.3444L33.0483 22.5745L30.9843 28.4944L18.9631 24.2643C18.3734 24.0602 17.727 24.3664 17.5115 24.9561C17.3073 25.5458 17.6135 26.1922 18.2033 26.4077L30.2244 30.6378L28.1377 36.569L16.1166 32.3389C15.5269 32.1348 14.8804 32.441 14.665 33.0307C14.4608 33.6204 14.767 34.2668 15.3567 34.4823L27.3779 38.7124L24.8716 45.823C24.6675 46.4127 24.9737 47.0591 25.5634 47.2746L30.6214 49.0551L28.8862 53.9883C28.6934 54.4987 27.0037 56.8348 25.3819 59.0803C21.6849 64.195 16.6156 71.2035 15.198 75.2522C12.8845 81.8411 15.7537 88.4301 21.8663 90.5735C27.7862 92.6489 35.1803 90.7436 37.8908 83.0546C39.3877 78.7905 39.1723 71.5438 38.9908 65.7146C38.8888 62.2557 38.7753 58.6834 39.1609 57.5947L40.8961 52.6501L46.9066 54.7595C47.4964 54.9636 48.1428 54.6574 48.3583 54.0677L50.8646 46.9571L62.8857 51.1872C63.4754 51.3913 64.1219 51.0851 64.3373 50.4954C64.5415 49.9057 64.2353 49.2592 63.6456 49.0438L51.6244 44.8137L53.7111 38.8825L65.7323 43.1126C66.322 43.3167 66.9684 43.0105 67.1839 42.4208C67.3993 41.8311 67.0818 41.1847 66.4921 40.9692L54.4709 36.7391L56.5576 30.8079L68.5788 35.038C69.1685 35.2421 69.8149 34.9359 70.0304 34.3462C70.2459 33.7565 69.9283 33.1101 69.3386 32.8946L57.3174 28.6645L59.4041 22.7333L71.4026 26.9747ZM36.734 65.7713C36.9041 71.4077 37.1196 78.4276 35.7587 82.2948C33.5473 88.5662 27.48 90.1312 22.6261 88.4188C17.6476 86.6723 15.4248 81.4442 17.3414 75.9893C18.6569 72.2469 23.8169 65.1136 27.2305 60.3958C29.612 57.0957 30.7801 55.474 31.041 54.7368L32.7761 49.7923L38.764 51.9016L37.0289 56.8462C36.5299 58.2524 36.5866 61.0196 36.734 65.7713ZM46.6118 52.2419L27.4119 45.4941L42.4951 2.59217L61.695 9.3399L46.6118 52.2419Z" fill="black"/>
<path d="M45.0126 8.54595C45.6452 8.54595 46.158 8.03313 46.158 7.40054C46.158 6.76795 45.6452 6.25513 45.0126 6.25513C44.38 6.25513 43.8672 6.76795 43.8672 7.40054C43.8672 8.03313 44.38 8.54595 45.0126 8.54595Z" fill="black"/>
<path d="M55.685 12.3566C56.2747 12.5607 56.9325 12.2545 57.1366 11.6534C57.3407 11.0637 57.0345 10.4059 56.4335 10.2018C55.8437 9.99768 55.186 10.3039 54.9818 10.9049C54.7777 11.4947 55.0953 12.1524 55.685 12.3566Z" fill="black"/>
<path d="M50.536 10.4853C51.1686 10.4853 51.6814 9.97247 51.6814 9.33987C51.6814 8.70728 51.1686 8.19446 50.536 8.19446C49.9034 8.19446 49.3906 8.70728 49.3906 9.33987C49.3906 9.97247 49.9034 10.4853 50.536 10.4853Z" fill="black"/>
<path d="M41.8033 16.5525C42.393 16.7567 43.0508 16.4505 43.2549 15.8494C43.4591 15.2597 43.1529 14.6019 42.5518 14.3978C41.9621 14.1937 41.3043 14.4999 41.1002 15.1009C40.8961 15.6906 41.2023 16.3371 41.8033 16.5525Z" fill="black"/>
<path d="M52.849 20.4311C53.4387 20.6353 54.0965 20.3291 54.3006 19.728C54.5048 19.1383 54.1986 18.4805 53.5975 18.2764C53.0078 18.0723 52.35 18.3785 52.1459 18.9795C51.9418 19.5692 52.2593 20.227 52.849 20.4311Z" fill="black"/>
<path d="M47.3268 18.4919C47.9165 18.696 48.5742 18.3898 48.7784 17.7887C48.9825 17.199 48.6763 16.5413 48.0752 16.3371C47.4855 16.133 46.8278 16.4392 46.6236 17.0403C46.4195 17.63 46.7257 18.2877 47.3268 18.4919Z" fill="black"/>
<path d="M39.3427 24.6952C39.9753 24.6952 40.4881 24.1824 40.4881 23.5498C40.4881 22.9172 39.9753 22.4044 39.3427 22.4044C38.7101 22.4044 38.1973 22.9172 38.1973 23.5498C38.1973 24.1824 38.7101 24.6952 39.3427 24.6952Z" fill="black"/>
<path d="M50.0143 28.5057C50.604 28.7098 51.2617 28.4036 51.4659 27.8025C51.67 27.2128 51.3638 26.5551 50.7627 26.3509C50.173 26.1468 49.5153 26.453 49.3111 27.0541C49.107 27.6551 49.4132 28.3015 50.0143 28.5057Z" fill="black"/>
<path d="M44.8642 26.6345C45.4968 26.6345 46.0096 26.1217 46.0096 25.4891C46.0096 24.8565 45.4968 24.3437 44.8642 24.3437C44.2316 24.3437 43.7188 24.8565 43.7188 25.4891C43.7188 26.1217 44.2316 26.6345 44.8642 26.6345Z" fill="black"/>
<path d="M36.1205 32.7018C36.7102 32.9059 37.368 32.5997 37.5721 31.9986C37.7763 31.4089 37.4701 30.7512 36.869 30.547C36.2679 30.3429 35.6215 30.6491 35.4174 31.2502C35.2133 31.8399 35.5308 32.4976 36.1205 32.7018Z" fill="black"/>
<path d="M47.1674 36.5803C47.7571 36.7844 48.4149 36.4782 48.619 35.8772C48.8231 35.2875 48.5169 34.6297 47.9159 34.4256C47.3262 34.2214 46.6684 34.5276 46.4643 35.1287C46.2601 35.7298 46.5777 36.3762 47.1674 36.5803Z" fill="black"/>
<path d="M41.644 34.6411C42.2337 34.8452 42.8914 34.539 43.0956 33.938C43.2997 33.3483 42.9935 32.6905 42.3924 32.4864C41.7914 32.2822 41.145 32.5884 40.9408 33.1895C40.7367 33.7792 41.0542 34.437 41.644 34.6411Z" fill="black"/>
<path d="M33.661 40.8445C34.2936 40.8445 34.8065 40.3317 34.8065 39.6991C34.8065 39.0665 34.2936 38.5536 33.661 38.5536C33.0284 38.5536 32.5156 39.0665 32.5156 39.6991C32.5156 40.3317 33.0284 40.8445 33.661 40.8445Z" fill="black"/>
<path d="M44.3315 44.6662C44.9212 44.8704 45.5789 44.5642 45.7831 43.9631C45.9872 43.3734 45.681 42.7156 45.0799 42.5115C44.4902 42.3074 43.8325 42.6136 43.6283 43.2146C43.4242 43.8043 43.7417 44.4508 44.3315 44.6662Z" fill="black"/>
<path d="M39.1825 42.7837C39.8151 42.7837 40.3279 42.2709 40.3279 41.6383C40.3279 41.0057 39.8151 40.4929 39.1825 40.4929C38.5499 40.4929 38.0371 41.0057 38.0371 41.6383C38.0371 42.2709 38.5499 42.7837 39.1825 42.7837Z" fill="black"/>
</svg>
