<svg width="90" height="93" viewBox="0 0 90 93" fill="none" xmlns="http://www.w3.org/2000/svg">
<path d="M45 92.6999C69.8528 92.6999 90 72.5527 90 47.6999C90 22.8471 69.8528 2.69995 45 2.69995C20.1472 2.69995 0 22.8471 0 47.6999C0 72.5527 20.1472 92.6999 45 92.6999Z" fill="#FEEFEF"/>
<path d="M59.1542 51.5827C58.2551 38.341 55.3288 22.7126 52.4843 16.01C52.1247 15.1599 51.716 14.4243 51.291 13.7867C55.9828 6.59368 55.6558 1.36239 55.6394 1.13352C55.5904 0.463265 54.9855 -0.0598637 54.3316 0.00552741C53.6614 0.0545707 53.1546 0.64309 53.1873 1.31335C53.1873 1.36239 53.4162 5.7436 49.5745 11.9067C48.3811 11.0239 47.0732 10.7951 45.7491 11.3345C42.2833 12.7731 42.8719 17.0072 43.771 20.5547L43.8037 20.6528C33.7661 36.0197 13.9527 66.8516 13.6911 67.2276C13.5113 67.5055 13.4623 67.8324 13.5277 68.1594C13.5931 68.4863 13.7892 68.7643 14.0671 68.9277L22.6987 74.3225C22.8949 74.4533 23.1237 74.5023 23.3526 74.5023C23.7613 74.5023 24.1536 74.3061 24.3825 73.9301L45.9779 40.0576C46.1578 39.7633 46.2069 39.42 46.1251 39.0767C46.0434 38.7497 45.8145 38.4718 45.5039 38.3084C45.4712 38.292 41.9073 36.3793 41.0573 33.0934C40.5995 31.3115 41.0246 29.3825 42.3161 27.3717C42.3488 27.3227 42.3651 27.2736 42.3978 27.2246C43.1661 26.0475 43.8855 24.9359 44.5884 23.8569C46.0107 29.6604 48.2339 40.3355 48.0214 52.4982C47.7599 67.5382 45.4384 83.9513 45.4221 84.1148C45.373 84.5072 45.5039 84.8831 45.7818 85.1611L50.3755 89.6567C50.6044 89.8856 50.915 90 51.242 90C51.4708 90 51.6997 89.9346 51.8958 89.8038L57.3887 86.2891C57.6993 86.0929 57.9118 85.7496 57.9445 85.3736C57.9936 85.2428 60.0534 64.8571 59.1542 51.5827ZM38.5887 33.1915C38.6214 33.3877 38.6705 33.5838 38.7195 33.7637C39.1119 35.235 39.8639 36.4611 40.6976 37.4746L19.8215 69.647L16.4375 67.5218C19.1839 63.2714 29.7609 46.8255 38.5887 33.1915ZM22.993 71.6251L21.8977 70.9385L42.4959 39.2075C42.7738 39.4364 43.0353 39.6325 43.2805 39.796L22.993 71.6251ZM51.4381 87.2699L47.9887 83.8859C48.4137 80.7472 50.2938 66.1323 50.5227 52.58C50.7842 37.867 47.5474 25.3282 46.3377 20.6037L46.1741 19.9498C44.7682 14.4079 46.1251 13.8521 46.7136 13.6069C48.4138 12.9039 49.9668 16.2716 50.2447 16.9582C52.9421 23.3338 55.852 38.9459 56.7184 51.7462C57.5195 63.5493 55.9338 81.1722 55.6068 84.6052L51.4381 87.2699Z" fill="black"/>
<path d="M49.0179 17.0727C49.0179 16.3534 48.4294 15.7648 47.7101 15.7648C46.9908 15.7648 46.4023 16.3534 46.4023 17.0727C46.4023 17.792 46.9908 18.3805 47.7101 18.3805C48.4294 18.3805 49.0179 17.792 49.0179 17.0727Z" fill="black"/>
<path d="M51.716 84.834C52.4383 84.834 53.0238 84.2485 53.0238 83.5262C53.0238 82.8039 52.4383 82.2184 51.716 82.2184C50.9937 82.2184 50.4082 82.8039 50.4082 83.5262C50.4082 84.2485 50.9937 84.834 51.716 84.834Z" fill="black"/>
</svg>
