<svg width="90" height="90" viewBox="0 0 90 90" fill="none" xmlns="http://www.w3.org/2000/svg">
<path d="M45 90C69.8528 90 90 69.8528 90 45C90 20.1472 69.8528 0 45 0C20.1472 0 0 20.1472 0 45C0 69.8528 20.1472 90 45 90Z" fill="#FEEFEF"/>
<path d="M36.9141 48.629C23.5094 48.629 12.5996 37.7193 12.5996 24.3145C12.5996 10.9098 23.5094 0 36.9141 0C50.3189 0 61.2286 10.9098 61.2286 24.3145C61.2286 37.7193 50.3189 48.629 36.9141 48.629ZM36.9141 2.26815C24.7569 2.26815 14.8678 12.1573 14.8678 24.3145C14.8678 36.4718 24.7569 46.3609 36.9141 46.3609C49.0714 46.3609 58.9605 36.4718 58.9605 24.3145C58.9605 12.1573 49.0714 2.26815 36.9141 2.26815Z" fill="black"/>
<path d="M65.9228 87.1988C65.73 87.1988 65.5259 87.1987 65.3218 87.1874C60.4566 87.04 55.1491 85.1914 50.352 81.9593C45.5549 78.7272 41.8351 74.4971 39.8845 70.0516C37.8772 65.4699 37.9453 61.1945 40.1 58.0077C44.4548 51.5435 56.1471 51.7703 66.161 58.5181C76.1748 65.2658 80.7678 76.0168 76.413 82.481C74.349 85.5317 70.6406 87.1988 65.9228 87.1988ZM50.5902 54.889C46.6096 54.889 43.2754 56.2159 41.4609 58.915C39.635 61.6254 39.6124 65.3452 41.3815 69.3825C43.2187 73.5559 46.723 77.5365 51.2706 80.5985C55.8069 83.6604 60.8195 85.4183 65.3671 85.5544C69.8127 85.6791 73.2149 84.2615 75.0408 81.5511C78.8966 75.8354 74.4964 66.105 65.231 59.8676C60.3545 56.5675 55.0584 54.889 50.5902 54.889Z" fill="black"/>
<path d="M52.0542 83.0253C48.085 85.9739 42.7775 87.7998 36.9257 87.7998C24.7004 87.7998 14.7659 79.918 14.7659 70.2216C14.7659 60.5253 24.7118 52.6435 36.9257 52.6435C40.0104 52.6435 42.9476 53.1538 45.6241 54.0611C46.7354 53.6982 47.9376 53.46 49.2077 53.358C45.6014 51.6228 41.4166 50.6135 36.9257 50.6135C23.589 50.6135 12.7246 59.4139 12.7246 70.2216C12.7246 81.0293 23.5777 89.8298 36.9257 89.8298C43.5827 89.8298 49.6273 87.641 54.0049 84.1027C53.3358 83.7625 52.6893 83.3996 52.0542 83.0253Z" fill="black"/>
<path d="M38.8761 35.9274C38.7627 35.9274 38.6379 35.9047 38.5359 35.848C38.1389 35.6552 37.9688 35.1789 38.1616 34.782L47.6425 15.1058C47.8352 14.7089 48.3116 14.5388 48.7085 14.7316C49.1054 14.9243 49.2755 15.4007 49.0827 15.7976L39.6019 35.4737C39.4545 35.7686 39.1709 35.9274 38.8761 35.9274Z" fill="black"/>
<path d="M40.6222 41.6998C40.5088 41.6998 40.384 41.6772 40.2819 41.6204C39.885 41.4277 39.7149 40.9513 39.9077 40.5544L49.3885 20.8783C49.5813 20.4813 50.0577 20.3112 50.4546 20.504C50.8515 20.6968 51.0216 21.1731 50.8288 21.57L41.348 41.2462C41.2005 41.5297 40.917 41.6998 40.6222 41.6998Z" fill="black"/>
<path d="M31.2091 52.7117C30.7555 52.7117 30.3926 52.3488 30.3926 51.8952V46.996C30.3926 46.5423 30.7555 46.1794 31.2091 46.1794C31.6627 46.1794 32.0256 46.5423 32.0256 46.996V51.8952C32.0256 52.3488 31.6514 52.7117 31.2091 52.7117Z" fill="black"/>
<path d="M42.629 52.7117C42.1754 52.7117 41.8125 52.3488 41.8125 51.8952V46.996C41.8125 46.5423 42.1754 46.1794 42.629 46.1794C43.0827 46.1794 43.4456 46.5423 43.4456 46.996V51.8952C43.4456 52.3488 43.0827 52.7117 42.629 52.7117Z" fill="black"/>
<path d="M48.3909 80.5192C45.2949 82.5265 41.2916 83.7513 36.9141 83.7513C27.127 83.7513 19.1772 77.684 19.1772 70.2218C19.1772 62.7596 27.1384 56.6923 36.9141 56.6923C38.275 56.6923 39.6018 56.8171 40.872 57.0439C41.3143 56.5449 41.8019 56.1139 42.3349 55.717C40.6111 55.3201 38.7966 55.1046 36.9141 55.1046C26.2538 55.1046 17.5781 61.8864 17.5781 70.2331C17.5781 78.5799 26.2538 85.3617 36.9141 85.3617C41.8359 85.3617 46.3155 83.8987 49.7291 81.5285C49.2755 81.1883 48.8218 80.8594 48.3909 80.5192Z" fill="black"/>
</svg>
