<svg width="90" height="91" viewBox="0 0 90 91" fill="none" xmlns="http://www.w3.org/2000/svg">
<path d="M45 91C69.8528 91 90 70.8528 90 46C90 21.1472 69.8528 1 45 1C20.1472 1 0 21.1472 0 46C0 70.8528 20.1472 91 45 91Z" fill="#FEEFEF"/>
<path d="M16.2383 42.5412L35.8124 39.3545" stroke="black" stroke-width="2" stroke-miterlimit="10" stroke-linecap="round" stroke-linejoin="round"/>
<path d="M16.2383 38.2318L35.8124 35.045" stroke="black" stroke-width="2" stroke-miterlimit="10" stroke-linecap="round" stroke-linejoin="round"/>
<path d="M16.2383 33.9222L35.8124 30.7468" stroke="black" stroke-width="2" stroke-miterlimit="10" stroke-linecap="round" stroke-linejoin="round"/>
<path d="M36.6284 43.7544H33.6571V30.0889H18.3925V43.7658H15.4212C10.885 43.7658 7.19922 47.4402 7.19922 51.9878V80.8726C7.19922 85.4089 10.8736 89.0947 15.4212 89.0947H36.6284C41.1647 89.0947 44.8504 85.4203 44.8504 80.8726V51.9765C44.8504 47.4402 41.1647 43.7544 36.6284 43.7544Z" stroke="black" stroke-width="2" stroke-miterlimit="10" stroke-linecap="round" stroke-linejoin="round"/>
<path d="M73.1466 1.28345H65.3555L67.6236 19.973H70.8784L73.1466 1.28345Z" stroke="black" stroke-width="2" stroke-miterlimit="10" stroke-linecap="round" stroke-linejoin="round"/>
<path d="M80.8012 89.5483H57.6888L56.5547 42.8245H81.9352L80.8012 89.5483Z" stroke="black" stroke-width="2" stroke-miterlimit="10" stroke-linecap="round" stroke-linejoin="round"/>
<path d="M72.0112 19.9729H66.4883V42.8245H72.0112V19.9729Z" stroke="black" stroke-width="2" stroke-miterlimit="10" stroke-linecap="round" stroke-linejoin="round"/>
</svg>
