<svg width="31" height="34" viewBox="0 0 31 34" fill="none" xmlns="http://www.w3.org/2000/svg">
<path d="M27.2626 31.751C26.2515 32.5994 24.9773 33.29 23.44 33.4182C19.6652 33.7268 12.8772 30.5066 7.22071 23.7654C1.55775 17.0166 -0.434774 9.77255 0.524599 6.1087C1.56498 2.16801 6.16673 0.682523 6.82069 0.590677C7.92002 0.438423 9.0868 1.3 11.1373 3.74368C13.7792 6.89212 12.8854 8.7517 12.1238 9.58653C12.0294 9.69184 11.8673 9.84091 11.6669 10.0221C10.2347 11.3022 9.03454 12.6878 9.92538 14.1073C11.5681 16.7496 12.1595 17.4543 13.2265 18.726C14.2935 19.9976 14.8849 20.7023 17.2017 22.7789C18.4526 23.8963 20.0191 22.9474 21.5273 21.7732C21.7405 21.6074 21.9155 21.4736 22.0356 21.3989C22.99 20.7939 24.9765 20.2366 27.6184 23.3851C29.6689 25.8287 30.3006 27.1262 29.9662 28.19C29.8343 28.5618 28.9173 30.3625 27.2626 31.751ZM4.13761 4.16051C3.39455 4.78401 2.73408 5.59929 2.45972 6.6258C1.65074 9.70657 3.57835 16.3132 8.74637 22.4722C13.9144 28.6312 20.0859 31.6767 23.2668 31.4227C26.0482 31.1904 27.8799 28.0217 28.0563 27.5474C28.0422 27.5461 27.9825 26.9305 26.0734 24.6553C25.3599 23.805 24.0353 22.4753 23.0963 23.0675C23.0132 23.1241 22.8919 23.2129 22.7464 23.335C21.5881 24.2416 18.517 26.6489 15.8509 24.2649C13.4287 22.0939 12.7666 21.3049 11.6803 20.0103C10.594 18.7157 9.93194 17.9267 8.21454 15.1643C6.32975 12.1247 9.23376 9.51823 10.3277 8.53503C10.4668 8.40524 10.5817 8.30883 10.6519 8.23689C11.4046 7.42257 10.3187 5.87956 9.6052 5.02925C7.70255 2.76176 7.10019 2.5884 7.03741 2.57581C6.77642 2.63815 5.34796 3.1449 4.13761 4.16051Z" fill="black"/>
</svg>
