<svg width="90" height="90" viewBox="0 0 90 90" fill="none" xmlns="http://www.w3.org/2000/svg">
<path d="M45 90C69.8528 90 90 69.8528 90 45C90 20.1472 69.8528 0 45 0C20.1472 0 0 20.1472 0 45C0 69.8528 20.1472 90 45 90Z" fill="#FEEFEF"/>
<path d="M87.25 14.32H84.3C84.22 14.32 84.14 14.33 84.07 14.35L77.3 15.97C76.85 16.08 76.53 16.48 76.53 16.94V17.98H74.97V16.94C74.97 15.21 73.38 14 71.96 14H39.23C37.87 14 36.98 14.84 36.49 15.75H29.83C29.28 15.75 28.83 16.2 28.83 16.75V17.73H27.14V17.14C27.14 15.15 26.09 14 24.26 14C22.62 14 21.51 15.66 21.51 17.2V17.72H18.37C17.82 17.72 17.37 18.17 17.37 18.72C17.37 19.27 17.82 19.72 18.37 19.72H21.52V25.46H16V15C16 14.45 15.55 14 15 14C14.45 14 14 14.45 14 15V30.03C14 30.58 14.45 31.03 15 31.03H19.75C19.39 32.23 19.12 33.4 19.12 34.24C19.12 37.15 22.23 39 23.81 39H28.49L27.09 44.66C27.07 44.74 27.06 44.82 27.06 44.9V47.64C27.06 50 29.08 50 29.94 50H34.02C35.44 50 36.32 49.09 36.32 47.64V44.87C36.32 44.79 36.31 44.71 36.29 44.64L34.94 39H38.07C42.8 39 43.36 44.81 43.36 44.87V48.49C43.36 48.63 43.39 48.77 43.45 48.9C43.6 49.23 43.86 49.69 44.21 50.33C45.82 53.19 49.58 59.89 49.58 67.42C49.58 73.73 47.79 79.13 46.71 82.36C46.17 83.98 45.82 85.04 45.82 85.76C45.82 88.22 48.7 90 50.64 90H59.52C61.09 90 64.07 89.45 66.33 85.76C70.34 79.22 72.37 71.11 72.37 61.65C72.37 46.96 64.24 37.6 63.89 37.21L63.56 36.84C62.13 35.24 59.73 32.55 59.73 30.16C59.73 27.66 61.7 27.53 62.1 27.53H72.14C74.07 27.53 74.95 25.77 74.95 24.13V19.99H76.51V20.9C76.51 21.36 76.82 21.76 77.27 21.87L84.07 23.55C84.15 23.57 84.23 23.58 84.31 23.58H87.23C89.59 23.58 89.59 21.56 89.59 20.7V16.62C89.61 15.2 88.71 14.32 87.25 14.32ZM57.74 30.16C57.74 33.32 60.45 36.36 62.08 38.17L62.4 38.53C62.73 38.9 70.38 47.71 70.38 61.65C70.38 70.74 68.45 78.5 64.63 84.71C62.87 87.57 60.67 88 59.52 88H50.64C49.63 88 47.82 86.87 47.82 85.76C47.82 85.37 48.2 84.21 48.61 82.99C49.72 79.65 51.58 74.06 51.58 67.42C51.58 59.37 47.64 52.35 45.95 49.35C45.7 48.9 45.49 48.53 45.36 48.27V44.88C45.36 43.59 44.09 37.01 38.07 37.01H23.81C23.26 37.01 21.12 35.85 21.12 34.25C21.12 32.56 22.79 28.35 23.43 26.87C23.48 26.75 23.51 26.62 23.51 26.48V17.2C23.51 16.62 23.9 16 24.26 16C24.73 16 25.14 16 25.14 17.14V26.21C25.14 26.76 25.59 27.21 26.14 27.21H37.03C37.58 27.21 38.03 26.76 38.03 26.21V17.4C38.03 17.26 38.32 16 39.23 16H71.95C72.4 16 72.96 16.44 72.96 16.94V24.13C72.96 24.27 72.94 25.53 72.15 25.53H62.11C60.6 25.53 57.74 26.5 57.74 30.16ZM34.31 47.64C34.31 47.88 34.26 47.96 34.27 47.97C34.26 47.97 34.19 48.01 34.02 48.01H29.94C29.35 48.01 29.15 47.96 29.11 47.96C29.1 47.96 29.07 47.98 29.06 47.65V45.04L30.53 39.11H32.91L34.32 45V47.64H34.31ZM30.84 17.75H36.03V19.51H30.84V17.75ZM28.84 19.73V20.51C28.84 21.06 29.29 21.51 29.84 21.51H36.03V25.21H27.14V19.73H28.84ZM16 29.03V27.47H21.02C20.84 27.93 20.63 28.46 20.42 29.03H16ZM87.61 20.7C87.61 21.34 87.56 21.52 87.57 21.54C87.57 21.54 87.49 21.58 87.25 21.58H84.46L78.53 20.11V17.73L84.42 16.32H87.25C87.5 16.32 87.57 16.36 87.58 16.36C87.58 16.37 87.62 16.44 87.62 16.61V20.7H87.61Z" fill="#231F20"/>
</svg>
